<svg xmlns="http://www.w3.org/2000/svg" width="61.6" height="60.67" viewBox="0 0 61.6 60.67"><defs><style>.a,.b{fill:none;}.a,.b,.c{stroke:#fff;}.a{stroke-width:3px;}.c{fill:rgba(255,255,255,0);}</style></defs><g transform="translate(-142.5 -139.547)"><path class="a" d="M0,12.882V3.637S1.061,0,3.637,0h9.851" transform="translate(144 198.67) rotate(-90)"/><path class="a" d="M0,12.882V3.637S1.061,0,3.637,0h9.851" transform="translate(202.6 141.047) rotate(90)"/><path class="a" d="M0,12.882V3.637S1.061,0,3.637,0h9.851" transform="translate(200.553 198.717) rotate(180)"/><path class="a" d="M106.6,115.582v-9.245s1.061-3.637,3.637-3.637h9.851" transform="translate(37.447 39.3)"/><path class="b" d="M0,10.049V2.837S.763,0,2.616,0H9.7" transform="translate(195.169 190.055) rotate(180)"/><line class="a" x2="56.542" transform="translate(144.035 170.656)"/><path class="c" d="M11,10H0V0H8.009L11,2.539V10ZM2,3V8H8V3Z" transform="translate(185.5 150.5)"/><path class="c" d="M11,0H0V10H8.009L11,7.461V0ZM2,7V2H8V7Z" transform="translate(163.5 160.5) rotate(180)"/><path class="c" d="M11,10H0V0H8.009L11,2.539V10ZM2,3V8H8V3Z" transform="translate(163.5 190.5) rotate(180)"/></g></svg>