<svg xmlns="http://www.w3.org/2000/svg" width="90" height="84" viewBox="0 0 90 84"><defs><style>.a{fill:#256280;}.a,.b,.c{stroke:#000;}.a,.c{stroke-width:3px;}.b{fill:#3babe2;stroke-width:3.5px;}.c,.e{fill:none;}.d{stroke:none;}</style></defs><g transform="translate(-225 -141)"><g transform="translate(62 39)"><g transform="translate(15 17)"><g class="a" transform="translate(219 127)"><circle class="d" cx="9.5" cy="9.5" r="9.5"/><circle class="e" cx="9.5" cy="9.5" r="8"/></g><g class="a" transform="translate(148 126)"><circle class="d" cx="9.5" cy="9.5" r="9.5"/><circle class="e" cx="9.5" cy="9.5" r="8"/></g><g class="b" transform="translate(157 108)"><rect class="d" width="71" height="61" rx="6"/><rect class="e" x="1.75" y="1.75" width="67.5" height="57.5" rx="4.25"/></g><line class="c" x2="7.523" y2="14.466" transform="translate(172.593 94.548)"/><line class="c" y1="14.466" x2="8.101" transform="translate(206.734 94.548)"/><g class="a" transform="translate(165 85)"><circle class="d" cx="5.5" cy="5.5" r="5.5"/><circle class="e" cx="5.5" cy="5.5" r="4"/></g><g class="a" transform="translate(211 85)"><circle class="d" cx="5.5" cy="5.5" r="5.5"/><circle class="e" cx="5.5" cy="5.5" r="4"/></g><g class="a" transform="translate(167 118)"><circle class="d" cx="9.5" cy="9.5" r="9.5"/><circle class="e" cx="9.5" cy="9.5" r="8"/></g><g class="a" transform="translate(200 118)"><circle class="d" cx="9.5" cy="9.5" r="9.5"/><circle class="e" cx="9.5" cy="9.5" r="8"/></g><g class="a" transform="translate(175 149)"><rect class="d" width="35" height="10" rx="5"/><rect class="e" x="1.5" y="1.5" width="32" height="7" rx="3.5"/></g></g></g></g></svg>