<svg xmlns="http://www.w3.org/2000/svg" width="369.7" height="316" viewBox="0 0 369.7 316"><defs><style>.a{fill:#f9b335;stroke:#707070;opacity:0.76;}</style></defs><g transform="translate(-85 -73)"><path class="a" d="M255.9,294H81.8L0,146.468,81.8,0H255.9l84.944,146.468L255.9,294ZM170.426,82a62.5,62.5,0,1,0,62.5,62.5A62.57,62.57,0,0,0,170.426,82Z" transform="translate(99.574 81.5)"/><g transform="translate(85 46.15)"><path d="M277.2,26.85H92.5L0,184.85l92.5,158H277.2l92.5-158Zm-11.4,296H104l-80.8-138,80.8-138H265.8l80.8,138Z"/></g><g transform="translate(85 46.15)"><path d="M184.9,108.65a71.9,71.9,0,1,0,71.9,71.9v-.1A71.955,71.955,0,0,0,184.9,108.65Zm0,123.8a51.9,51.9,0,1,1,51.9-51.9A51.853,51.853,0,0,1,184.9,232.45Z"/></g></g></svg>