<svg xmlns="http://www.w3.org/2000/svg" width="218" height="218.002" viewBox="0 0 218 218.002"><defs><style>.a{fill:#662683;}</style></defs><g transform="translate(-170 -166)"><path d="M104,218H46A45.961,45.961,0,0,1,0,172V114.5H104V218ZM20,159.216v6.6H48.48v26.855h7.95V165.816H86.259v-6.6H56.43V131.135H48.48v28.082ZM172,218H114V114.5H218V172a45.962,45.962,0,0,1-46,46Zm-41-63.108v8.648h70.78v-8.648ZM104,104.5H0V46A45.962,45.962,0,0,1,46,0h58V104.5ZM52.652,59.546h0L73.495,80.389l5.829-5.829L58.481,53.717,79.324,32.873,73.4,26.948,52.556,47.792,32.473,27.708l-5.828,5.829L46.727,53.62l-19.7,19.7,5.926,5.925L52.651,59.547ZM218,104.5H114V0h58a45.964,45.964,0,0,1,46,46ZM168,71a8,8,0,1,0,8,8A8.009,8.009,0,0,0,168,71ZM131,50.707v7.834H201.26V50.707ZM168,22a8,8,0,1,0,8,8A8.009,8.009,0,0,0,168,22Z" transform="translate(170 166)"/><path class="a" d="M98,212H44A43.963,43.963,0,0,1,0,168V114H98v98ZM13,152v14H42v27H57V166H86V152H57V125H42v27Zm155,60H114V114h98v54a43.963,43.963,0,0,1-44,44Zm-43-63v15h77V149ZM98,99H0V44A43.963,43.963,0,0,1,44,0H98V99ZM49.5,61.106h0L70.006,81.613,80.613,71.006,60.106,50.5,80.613,29.994,70.006,19.387,49.5,39.893,28.993,19.387,18.387,29.994,38.893,50.5,18.387,71.006,28.993,81.613,49.5,61.107ZM212,99H114V0h54a43.963,43.963,0,0,1,44,44ZM165,65a11,11,0,1,0,11,11A11.012,11.012,0,0,0,165,65ZM125,45V58h76V45Zm40-29a11,11,0,1,0,11,11A11.012,11.012,0,0,0,165,16Z" transform="translate(173 169)"/></g></svg>