<svg xmlns="http://www.w3.org/2000/svg" width="236" height="237" viewBox="0 0 236 237"><defs><style>.a,.b,.d{fill:none;}.a,.b{stroke:#000;}.a{stroke-width:14px;}.b{stroke-width:13px;}.c{stroke:none;}</style></defs><g transform="translate(-291 -155)"><g class="a" transform="translate(291 155)"><ellipse class="c" cx="118" cy="118.5" rx="118" ry="118.5"/><ellipse class="d" cx="118" cy="118.5" rx="111" ry="111.5"/></g><path class="b" d="M262,352.291S304.64,331,347.279,331s85.279,21.291,85.279,21.291" transform="translate(58.721 -3.061)"/><path class="b" d="M262,331s42.64,21.291,85.279,21.291S432.558,331,432.558,331" transform="translate(58.721 -134.23)"/><path class="b" d="M0,0S9.423,55.448,103.2,55.448,207.333,0,207.333,0" transform="translate(406.035 377.332) rotate(-90)"/><path class="b" d="M0,55.448S9.423,0,103.2,0,207.333,55.448,207.333,55.448" transform="translate(352.89 377.332) rotate(-90)"/><line class="b" x2="2" y2="216" transform="translate(406.5 164.5)"/><line class="b" y1="0.009" x2="213.87" transform="translate(302.63 273.5)"/></g></svg>