<svg xmlns="http://www.w3.org/2000/svg" width="173.695" height="259.627" viewBox="0 0 173.695 259.627"><defs><style>.a{fill:#fff;stroke:#707070;}.b{stroke:none;}.c{fill:none;}</style></defs><g transform="translate(-243.305 -236)"><circle cx="84.5" cy="84.5" r="84.5" transform="translate(248 236)"/><g class="a" transform="translate(259 247)"><circle class="b" cx="73.5" cy="73.5" r="73.5"/><circle class="c" cx="73.5" cy="73.5" r="73"/></g><rect width="21" height="111" transform="translate(290.216 386.152) rotate(25)"/><path d="M390.112,309.314l-7.458,27.762H375.61l-4.765-21.339-5.387,21.339H358l-7.044-27.762H358l4.351,21.961,5.179-21.961h6.422l5.594,21.961,4.351-21.961Z"/><path d="M390.112,309.314l-7.458,27.762H375.61l-4.765-21.339-5.387,21.339H358l-7.044-27.762H358l4.351,21.961,5.179-21.961h6.422l5.594,21.961,4.351-21.961Z" transform="translate(-39)"/><path d="M390.112,309.314l-7.458,27.762H375.61l-4.765-21.339-5.387,21.339H358l-7.044-27.762H358l4.351,21.961,5.179-21.961h6.422l5.594,21.961,4.351-21.961Z" transform="translate(-78)"/><circle cx="3" cy="3" r="3" transform="translate(390 331)"/></g></svg>