<svg xmlns="http://www.w3.org/2000/svg" width="76.012" height="75.962" viewBox="0 0 76.012 75.962"><defs><style>.a{fill:none;stroke:#000;stroke-width:3px;}</style></defs><g transform="translate(-36.856 -55.538)"><path class="a" d="M90.918,65.314c-16.254-19.8-31.03,2.512-31.326,0S40.974,57.778,38.61,72.85,52.056,88.513,52.056,88.513l2.807,34.872,41.226.591,2.66-35.463s17.14-3.4,11.378-17.14S90.918,65.314,90.918,65.314Z"/><path class="a" d="M172.921,113,171,117.137" transform="translate(-113.033 -47.686)"/><path class="a" d="M396.512,117.99A8.524,8.524,0,0,0,394,114" transform="translate(-303.23 -48.833)"/><path class="a" d="M130.769,259.511a7.861,7.861,0,0,0,5.8-1.819" transform="translate(-78.747 -170.998)"/><path class="a" d="M405.08,258.892a8.033,8.033,0,0,1-7.388-1.969" transform="translate(-306.229 -170.342)"/><path class="a" d="M150,506.154l.682,6.592h40.123l.455-6.024Z" transform="translate(-95.136 -382.746)"/><path class="a" d="M224.661,466.281l-.579-6.913" transform="translate(-158.272 -342.874)"/><path class="a" d="M350,462.276l.581-7.608" transform="translate(-265.732 -338.277)"/></g></svg>