<svg xmlns="http://www.w3.org/2000/svg" width="132.175" height="143.662" viewBox="0 0 132.175 143.662"><defs><style>.a,.c,.e{fill:none;}.a,.b,.c{stroke:#000;}.a,.b{stroke-width:3px;}.b{fill:#fff;}.c{stroke-width:2px;}.d{stroke:none;}</style></defs><g transform="translate(-142.242 -223.67)"><g transform="translate(190.363 239.194)"><path class="a" d="M.407,63.661S-8.258,6.961,54.332,0" transform="translate(82.02 30.863) rotate(119)"/><line class="a" x1="4.474" y1="14.317" transform="translate(51.702 64.664)"/><line class="a" y1="2.809" x2="14.969" transform="translate(54.387 75.276)"/></g><g transform="matrix(-0.485, 0.875, -0.875, -0.485, 248.213, 308.49)"><path class="a" d="M.407,63.661S-8.258,6.961,54.332,0" transform="translate(82.02 30.863) rotate(119)"/><line class="a" x1="4.474" y1="14.317" transform="translate(51.702 64.664)"/><line class="a" y1="2.809" x2="14.969" transform="translate(54.387 75.276)"/></g><g transform="translate(159.589 324.333) rotate(-121)"><path class="a" d="M.407,63.661S-8.258,6.961,54.332,0" transform="translate(82.02 30.863) rotate(119)"/><line class="a" x1="4.474" y1="14.317" transform="translate(51.702 64.664)"/><line class="a" y1="2.809" x2="14.969" transform="translate(54.387 75.276)"/></g><g class="b" transform="translate(184 261)"><rect class="d" width="31" height="71" rx="7"/><rect class="e" x="1.5" y="1.5" width="28" height="68" rx="5.5"/></g><g class="b" transform="translate(187 249)"><rect class="d" width="24" height="11" rx="5"/><rect class="e" x="1.5" y="1.5" width="21" height="8" rx="3.5"/></g><path class="a" d="M215.545,271.484l-5.995,14.787s-2.131,8.393,5.995,8.393,6.394-8.393,6.394-8.393Z" transform="translate(-17.318 16.94)"/><path class="c" d="M213.006,271.484l-3.559,8.779s-1.265,4.983,3.559,4.983,3.8-4.983,3.8-4.983Z" transform="translate(-8.57 11.488)"/></g></svg>