<svg xmlns="http://www.w3.org/2000/svg" width="107" height="150.922" viewBox="0 0 107 150.922"><defs><style>.a,.b{fill:#fff;}.a,.c{stroke:#000;stroke-width:3px;}.c,.e{fill:none;}.d,.f{stroke:none;}</style></defs><g transform="translate(-205 -112.539)"><g class="a" transform="translate(205 197)"><rect class="d" width="107" height="13" rx="6.5"/><rect class="e" x="1.5" y="1.5" width="104" height="10" rx="5"/></g><g class="b" transform="translate(210.156 180.726)"><path class="d" d="M 75.71814727783203 52.05208206176758 L 21.65850448608398 52.05208206176758 C 18.87766456604004 52.05208206176758 16.18337249755859 51.67516326904297 13.65045166015625 50.9317741394043 C 11.22606468200684 50.22024154663086 9.055397987365723 49.20624160766602 7.198758125305176 47.91796112060547 C 3.523851633071899 45.36800384521484 1.499998211860657 42.03168106079102 1.499998211860657 38.52359008789063 C 1.499998211860657 35.89192199707031 2.602238178253174 34.3886833190918 5.185598373413086 33.49715042114258 C 8.030598640441895 32.51530838012695 12.33139801025391 32.43314743041992 16.49269104003906 32.43314743041992 C 17.30202484130859 32.43314743041992 18.11454582214355 32.43695068359375 18.97477149963379 32.44096374511719 C 19.8467845916748 32.44503021240234 20.74849128723145 32.4492301940918 21.65850448608398 32.4492301940918 L 75.71814727783203 32.4492301940918 C 76.62778472900391 32.4492301940918 77.52964782714844 32.44503021240234 78.40182495117188 32.44096374511719 C 79.26223754882813 32.43695068359375 80.07492828369141 32.43314743041992 80.88397216796875 32.43314743041992 C 85.04570770263672 32.43314743041992 89.34690856933594 32.51529693603516 92.19145202636719 33.49696350097656 C 94.77454376220703 34.38838958740234 95.87666320800781 35.89168167114258 95.87666320800781 38.52359008789063 C 95.87666320800781 42.03168106079102 93.85281372070313 45.36800384521484 90.17790222167969 47.91796112060547 C 88.32126617431641 49.20624160766602 86.15061187744141 50.22024154663086 83.72621154785156 50.9317741394043 C 81.19329071044922 51.67516326904297 78.49898529052734 52.05208206176758 75.71814727783203 52.05208206176758 Z"/><path class="f" d="M 16.49271392822266 33.93315124511719 C 12.45871734619141 33.93315124511719 8.300544738769531 34.00896835327148 5.674949645996094 34.91508865356445 C 4.694625854492188 35.25339889526367 4.021995544433594 35.67135238647461 3.618637084960938 36.19281387329102 C 3.202346801757813 36.7309684753418 2.999992370605469 37.49336624145508 2.999992370605469 38.52358245849609 C 2.999992370605469 41.52552032470703 4.794822692871094 44.4241828918457 8.053886413574219 46.68558120727539 C 9.778068542480469 47.88196563720703 11.80314636230469 48.82633590698242 14.07286834716797 49.49247360229492 C 16.46852874755859 50.1955680847168 19.02069854736328 50.55207443237305 21.65850067138672 50.55207443237305 L 75.71814727783203 50.55207443237305 C 78.35594940185547 50.55207443237305 80.90811157226563 50.1955680847168 83.30377960205078 49.49247360229492 C 85.57350158691406 48.82633590698242 87.59857940673828 47.88196563720703 89.32276153564453 46.68558120727539 C 92.58182525634766 44.4241828918457 94.37665557861328 41.52552032470703 94.37665557861328 38.52358245849609 C 94.37665557861328 37.49316787719727 94.17430114746094 36.73064422607422 93.75804138183594 36.19244384765625 C 93.35477447509766 35.67104339599609 92.68226623535156 35.25315093994141 91.70210266113281 34.91489028930664 C 89.07691955566406 34.00893783569336 84.91836547851563 33.93313598632813 80.88396453857422 33.93315124511719 C 80.07881164550781 33.93315124511719 79.26824188232422 33.93693542480469 78.41008758544922 33.94093704223633 C 77.53578186035156 33.94501495361328 76.6317138671875 33.9492301940918 75.71814727783203 33.9492301940918 L 21.65850067138672 33.9492301940918 C 20.74497985839844 33.9492301940918 19.84149932861328 33.94501495361328 18.96778106689453 33.94093704223633 C 18.10935974121094 33.93693542480469 17.29854583740234 33.93315124511719 16.49271392822266 33.93315124511719 M 16.49271392822266 30.93315505981445 C 18.14848327636719 30.93315505981445 19.87783050537109 30.9492301940918 21.65850067138672 30.9492301940918 L 75.71814727783203 30.9492301940918 C 77.49808502197266 30.9492301940918 79.22878265380859 30.93316268920898 80.88393402099609 30.93315505981445 C 90.35185241699219 30.93312072753906 97.37665557861328 31.45865249633789 97.37665557861328 38.52358245849609 C 97.37665557861328 46.8235969543457 87.6798095703125 53.55207443237305 75.71814727783203 53.55207443237305 L 21.65850067138672 53.55207443237305 C 9.69683837890625 53.55207443237305 -7.62939453125e-06 46.8235969543457 -7.62939453125e-06 38.52358245849609 C -7.62939453125e-06 31.45915985107422 7.025825500488281 30.93315505981445 16.49271392822266 30.93315505981445 Z"/></g><g class="b" transform="matrix(1, 0.017, -0.017, 1, 292.247, 115.393)"><path class="d" d="M 4.953788757324219 78.32516479492188 C 4.69611120223999 77.67510223388672 4.179588794708252 75.92899322509766 3.553345918655396 71.45738220214844 C 3.09911060333252 68.21397399902344 2.817345857620239 65.17018890380859 2.814545869827271 65.13982391357422 C 2.801710605621338 64.99655151367188 1.500004768371582 50.33309173583984 1.500004768371582 37.85174942016602 C 1.500004768371582 25.40200996398926 2.796392917633057 14.77945613861084 2.809487104415894 14.67362117767334 L 2.82054591178894 14.58425617218018 L 2.820840120315552 14.49412727355957 C 2.820934057235718 14.46773815155029 2.834698915481567 11.78891468048096 3.200522422790527 8.722667694091797 C 3.655592918395996 4.908467769622803 4.46327543258667 2.121632814407349 5.474769592285156 0.8755385875701904 C 6.646392822265625 -0.5678260922431946 7.739804744720459 -1.29966139793396 8.724616050720215 -1.29966139793396 C 9.709427833557129 -1.29966139793396 10.80282783508301 -0.5678260922431946 11.97445201873779 0.8755385875701904 C 12.98595809936523 2.121632814407349 13.79362869262695 4.908467769622803 14.24869918823242 8.722667694091797 C 14.61452198028564 11.78891468048096 14.62828731536865 14.46773815155029 14.62838077545166 14.49444484710693 L 14.62868690490723 14.57885646820068 L 14.63846397399902 14.6630916595459 C 14.65153408050537 14.77522087097168 15.9454870223999 26.01976203918457 15.9454870223999 38.47640991210938 C 15.9454870223999 50.95907974243164 14.64796924591064 64.99736022949219 14.63486385345459 65.13770294189453 L 14.63198089599609 65.16863250732422 L 14.63036918640137 65.19969177246094 C 14.62882804870605 65.22953033447266 14.47229862213135 68.21961212158203 14.1526403427124 71.41422271728516 C 13.71405506134033 75.79718017578125 13.27473831176758 77.53315734863281 13.04508686065674 78.18746185302734 L 4.953788757324219 78.32516479492188 Z"/><path class="f" d="M 8.724611282348633 0.2003250122070313 C 8.35247802734375 0.2003250122070313 7.609265327453613 0.6260452270507813 6.639385223388672 1.820884704589844 C 6.336504936218262 2.194000244140625 5.301051139831543 3.805191040039063 4.693358421325684 8.871986389160156 C 4.335491180419922 11.85569763183594 4.320931434631348 14.47406768798828 4.32083797454834 14.49889373779297 L 4.32026481628418 14.67916107177734 L 4.298105239868164 14.85807037353516 C 4.285131454467773 14.96288299560547 2.999998092651367 25.4829216003418 2.999998092651367 37.85174942016602 C 2.999998092651367 50.19679260253906 4.282049179077148 64.70826721191406 4.308549880981445 65.0057373046875 C 4.319031715393066 65.11867523193359 4.577778816223145 67.88987731933594 4.993198394775391 70.91985321044922 C 5.424373626708984 74.06473541259766 5.793971061706543 75.83444976806641 6.047905921936035 76.80633544921875 L 11.892578125 76.70687103271484 C 12.10396575927734 75.73911285400391 12.39538288116455 73.99667358398438 12.69249153137207 70.93611907958984 C 12.98647880554199 67.90757751464844 13.13095855712891 65.14961242675781 13.13237190246582 65.12228393554688 L 13.13558483123779 65.06016540527344 L 13.14137172698975 64.99821472167969 C 13.15441131591797 64.85856628417969 14.44549179077148 50.88998794555664 14.44549179077148 38.47641372680664 C 14.44549179077148 26.11477661132813 13.16151809692383 14.94805526733398 13.14858436584473 14.83697509765625 L 13.12893104553223 14.66851043701172 L 13.12838554382324 14.49889373779297 C 13.12830543518066 14.47332382202148 13.1161584854126 11.90721893310547 12.7625846862793 8.928268432617188 C 12.15609169006348 3.818412780761719 11.11459827423096 2.196319580078125 10.80983829498291 1.820884704589844 C 9.839944839477539 0.6260452270507813 9.096744537353516 0.2003250122070313 8.724611282348633 0.2003250122070313 M 8.724611282348633 -2.799674987792969 C 10.19319534301758 -2.799674987792969 11.66177845001221 -1.889724731445313 13.13905143737793 -0.06982421875 C 16.0936107635498 3.569961547851563 16.12837219238281 14.48934936523438 16.12837219238281 14.48934936523438 C 16.12837219238281 14.48934936523438 17.44549179077148 25.77946853637695 17.44549179077148 38.47641372680664 C 17.44549179077148 51.17336273193359 16.12837219238281 65.27716064453125 16.12837219238281 65.27716064453125 C 16.12837219238281 65.27716064453125 15.38403797149658 79.67597198486328 13.73309135437012 79.67597198486328 L 4.310172080993652 79.83633422851563 C 2.659211158752441 79.83633422851563 1.320852279663086 65.27716064453125 1.320852279663086 65.27716064453125 C 1.320852279663086 65.27716064453125 -1.9073486328125e-06 50.5486946105957 -1.9073486328125e-06 37.85174942016602 C -1.9073486328125e-06 25.15478897094727 1.320852279663086 14.48934936523438 1.320852279663086 14.48934936523438 C 1.320852279663086 14.48934936523438 1.355611801147461 3.569961547851563 4.310172080993652 -0.06982421875 C 5.787445068359375 -1.889724731445313 7.256028175354004 -2.799674987792969 8.724611282348633 -2.799674987792969 Z"/></g><path class="c" d="M220.311,261.249c-1.347-.808,7-19.392,10.773-21.546s53.327-.539,57.367,0,12.389,20.469,10.234,21.546S221.658,262.057,220.311,261.249Z"/><path class="c" d="M213.847,214.964c3.239-3.406,31.512-.474,46.325-1.423,40.669-.237,41.818,1.278,43.631,1.423,2.963.237,8.888,9.489-11.312,16.131s-67.332,0-67.332,0S205.5,223.741,213.847,214.964Z"/><path class="c" d="M304.611,193.648c1.077-3.232,7.272-86.185-4.309-79.183s-4.309,79.183-4.309,79.183Z"/></g></svg>