<?xml version="1.0" encoding="UTF-8"?>
<svg width="38px" height="36px" viewBox="0 0 38 36" version="1.1" xmlns="http://www.w3.org/2000/svg" xmlns:xlink="http://www.w3.org/1999/xlink">
    <!-- Generator: sketchtool 56.3 (101010) - https://sketch.com -->
    <title>DD5132DA-37B7-4258-8B46-D816EF4BFA3E</title>
    <desc>Created with sketchtool.</desc>
    <g id="Page-1" stroke="none" stroke-width="1" fill="none" fill-rule="evenodd">
        <g id="Map-View" transform="translate(-156.000000, -59.000000)" fill="#3CABE2">
            <g id="Technology" transform="translate(156.000000, 59.000000)">
                <polygon id="Fill-1" points="17.2611429 1.71488571 18.9754286 1.71488571 18.9754286 0.0006 17.2611429 0.0006"></polygon>
                <polygon id="Fill-2" points="17.2611429 5.14345714 18.9754286 5.14345714 18.9754286 3.42917143 17.2611429 3.42917143"></polygon>
                <polygon id="Fill-3" points="15.5468571 3.42917143 17.2611429 3.42917143 17.2611429 1.71488571 15.5468571 1.71488571"></polygon>
                <polygon id="Fill-4" points="18.9754286 3.42917143 20.6897143 3.42917143 20.6897143 1.71488571 18.9754286 1.71488571"></polygon>
                <polygon id="Fill-5" points="30.1182857 12.9486 31.8325714 12.9486 31.8325714 11.2343143 30.1182857 11.2343143"></polygon>
                <polygon id="Fill-6" points="30.1182857 16.3771714 31.8325714 16.3771714 31.8325714 14.6628857 30.1182857 14.6628857"></polygon>
                <polygon id="Fill-7" points="28.404 14.6628857 30.1182857 14.6628857 30.1182857 12.9486 28.404 12.9486"></polygon>
                <polygon id="Fill-8" points="31.8325714 14.6628857 33.5468571 14.6628857 33.5468571 12.9486 31.8325714 12.9486"></polygon>
                <path d="M6.9756,12.8573143 C6.9756,13.3304571 6.59245714,13.7144571 6.11845714,13.7144571 C5.64531429,13.7144571 5.26131429,13.3304571 5.26131429,12.8573143 C5.26131429,12.3833143 5.64531429,12.0001714 6.11845714,12.0001714 C6.59245714,12.0001714 6.9756,12.3833143 6.9756,12.8573143 M3.54702857,12.8573143 C3.54702857,14.2776 4.69902857,15.4287429 6.11845714,15.4287429 C7.53874286,15.4287429 8.68988571,14.2776 8.68988571,12.8573143 C8.68988571,11.4370286 7.53874286,10.2858857 6.11845714,10.2858857 C4.69902857,10.2858857 3.54702857,11.4370286 3.54702857,12.8573143" id="Fill-11"></path>
                <path d="M33.5470286,6.85731429 C33.0738857,6.85731429 32.6898857,6.47331429 32.6898857,6.00017143 C32.6898857,5.52617143 33.0738857,5.14302857 33.5470286,5.14302857 C34.0210286,5.14302857 34.4041714,5.52617143 34.4041714,6.00017143 C34.4041714,6.47331429 34.0210286,6.85731429 33.5470286,6.85731429 M33.5470286,3.42874286 C32.1276,3.42874286 30.9756,4.57988571 30.9756,6.00017143 C30.9756,7.42045714 32.1276,8.5716 33.5470286,8.5716 C34.9673143,8.5716 36.1184571,7.42045714 36.1184571,6.00017143 C36.1184571,4.57988571 34.9673143,3.42874286 33.5470286,3.42874286" id="Fill-13"></path>
                <polygon id="Fill-17" points="8.20628571 6.0006 9.92057143 6.0006 9.92057143 4.28631429 8.20628571 4.28631429"></polygon>
                <polygon id="Fill-18" points="26.6897143 8.57202857 28.404 8.57202857 28.404 6.85774286 26.6897143 6.85774286"></polygon>
                <path d="M30.5194286,32.6051143 C30.0848571,32.6051143 29.7008571,32.2939714 29.6228571,31.8516857 C29.2602857,29.7894 30.6428571,27.8154 32.7051429,27.4528286 C34.7691429,27.0885429 36.7414286,28.4728286 37.104,30.5351143 C37.1905714,31.0305429 36.8597143,31.5036857 36.3642857,31.5902571 C35.8645714,31.6759714 35.3957143,31.3459714 35.3091429,30.8514 C35.1205714,29.7782571 34.0851429,29.0642571 33.0214286,29.2476857 C31.9482857,29.4371143 31.2291429,30.4631143 31.4177143,31.5354 C31.5042857,32.0308286 31.1742857,32.5039714 30.6788571,32.5905429 C30.6248571,32.5999714 30.5717143,32.6051143 30.5194286,32.6051143" id="Fill-19"></path>
                <path d="M6.42822857,32.9072571 C6.33908571,32.9072571 6.24908571,32.8935429 6.15994286,32.8661143 C5.67908571,32.7178286 5.40994286,32.2086857 5.55737143,31.7269714 C5.87794286,30.6864 5.29251429,29.5781143 4.25194286,29.2566857 C3.74622857,29.1015429 3.21308571,29.1512571 2.74594286,29.3981143 C2.27965714,29.6449714 1.93765714,30.0581143 1.78165714,30.5629714 C1.63422857,31.0429714 1.12508571,31.3138286 0.642514286,31.1646857 C0.161657143,31.0164 -0.107485714,30.5064 0.0408,30.0255429 C0.339085714,29.0561143 0.998228571,28.2615429 1.8948,27.7866857 C2.79222857,27.3135429 3.81908571,27.2166857 4.78937143,27.5158286 C6.78994286,28.1338286 7.91537143,30.2638286 7.29908571,32.2644 C7.17822857,32.6552571 6.81737143,32.9072571 6.42822857,32.9072571" id="Fill-20"></path>
                <polygon id="Fill-21" points="20.5362857 24.0991714 24.2314286 24.0991714 24.2314286 22.5237429 20.5362857 22.5237429"></polygon>
                <polygon id="Fill-22" points="19.3662857 17.3834571 22.3842857 17.3834571 22.3842857 15.3708857 19.3662857 15.3708857"></polygon>
                <polygon id="Fill-23" points="20.5362857 26.5720286 24.2314286 26.5720286 24.2314286 24.9966 20.5362857 24.9966"></polygon>
                <polygon id="Fill-24" points="20.5362857 29.0448857 24.2314286 29.0448857 24.2314286 27.4694571 20.5362857 27.4694571"></polygon>
                <polygon id="Fill-25" points="20.5362857 32.6063143 24.2314286 32.6063143 24.2314286 29.9997429 20.5362857 29.9997429"></polygon>
                <path d="M14.04,30.8611714 L17.2971429,30.8611714 L17.2971429,24.1428857 L14.04,24.1428857 L14.04,30.8611714 Z M12.3762857,32.5257429 L18.9617143,32.5257429 L18.9617143,22.4791714 L12.3762857,22.4791714 L12.3762857,32.5257429 Z" id="Fill-26"></path>
                <path d="M10.7665714,33.9820286 L26.3271429,33.9820286 L26.3271429,20.9191714 L10.7665714,20.9191714 L10.7665714,33.9820286 Z M8.94342857,35.8043143 L28.1502857,35.8043143 L28.1502857,19.0960286 L8.94342857,19.0960286 L8.94342857,35.8043143 Z" id="Fill-27"></path>
                <path d="M27.2390571,20.5272857 C26.7359143,20.5272857 26.3279143,20.1192857 26.3279143,19.617 C26.3279143,15.3261429 22.8376286,11.8358571 18.5467714,11.8358571 C14.2567714,11.8358571 10.7664857,15.3261429 10.7664857,19.617 C10.7664857,20.1192857 10.3584857,20.5272857 9.85534286,20.5272857 C9.3522,20.5272857 8.94334286,20.1192857 8.94334286,19.617 C8.94334286,14.3215714 13.2522,10.0135714 18.5467714,10.0135714 C23.8422,10.0135714 28.1502,14.3215714 28.1502,19.617 C28.1502,20.1192857 27.7422,20.5272857 27.2390571,20.5272857" id="Fill-28"></path>
                <path d="M16.7499429,16.3763143 C16.7499429,17.0980286 16.1645143,17.6826 15.4436571,17.6826 C14.7219429,17.6826 14.1365143,17.0980286 14.1365143,16.3763143 C14.1365143,15.6554571 14.7219429,15.0700286 15.4436571,15.0700286 C16.1645143,15.0700286 16.7499429,15.6554571 16.7499429,16.3763143" id="Fill-29"></path>
                <path d="M4.41762857,29.1681429 C4.35162857,29.1681429 4.28391429,29.1604286 4.2162,29.1458571 C3.72591429,29.0352857 3.41734286,28.5484286 3.52791429,28.0581429 C3.58791429,27.789 5.06134286,21.4581429 9.77305714,21.0347143 C10.2959143,20.9884286 10.7184857,21.3604286 10.7622,21.8601429 C10.8076286,22.3615714 10.4373429,22.8038571 9.93677143,22.8492857 C6.54848571,23.1535714 5.31762857,28.4044286 5.30562857,28.4584286 C5.20962857,28.881 4.83334286,29.1681429 4.41762857,29.1681429" id="Fill-30"></path>
                <path d="M32.7325714,29.1681429 C32.3168571,29.1681429 31.9405714,28.881 31.8445714,28.4584286 C31.8325714,28.4044286 30.6017143,23.1535714 27.2134286,22.8492857 C26.7128571,22.8038571 26.3425714,22.3615714 26.388,21.8601429 C26.4325714,21.3595714 26.8525714,20.9807143 27.3771429,21.0347143 C32.0888571,21.4581429 33.5622857,27.789 33.6222857,28.0581429 C33.7328571,28.5484286 33.4242857,29.0352857 32.934,29.1458571 C32.8662857,29.1604286 32.7985714,29.1681429 32.7325714,29.1681429" id="Fill-31"></path>
            </g>
        </g>
    </g>
</svg>