<?xml version="1.0" encoding="UTF-8"?>
<svg width="39px" height="40px" viewBox="0 0 39 40" version="1.1" xmlns="http://www.w3.org/2000/svg" xmlns:xlink="http://www.w3.org/1999/xlink">
    <!-- Generator: sketchtool 56.3 (101010) - https://sketch.com -->
    <title>B62A1DC1-9B37-4BA6-A685-A1B87FBCA8EE</title>
    <desc>Created with sketchtool.</desc>
    <g id="Page-1" stroke="none" stroke-width="1" fill="none" fill-rule="evenodd">
        <g id="Map-View" transform="translate(-317.000000, -58.000000)" fill="#672683">
            <g id="Maths" transform="translate(317.000000, 58.000000)">
                <polygon id="Fill-1" points="8.6244898 2.44881633 10.2571429 2.44881633 10.2571429 0.816163265 8.6244898 0.816163265"></polygon>
                <polygon id="Fill-2" points="8.6244898 5.71412245 10.2571429 5.71412245 10.2571429 4.08146939 8.6244898 4.08146939"></polygon>
                <polygon id="Fill-3" points="6.99183673 4.08146939 8.6244898 4.08146939 8.6244898 2.44881633 6.99183673 2.44881633"></polygon>
                <polygon id="Fill-4" points="10.2571429 4.08146939 11.8897959 4.08146939 11.8897959 2.44881633 10.2571429 2.44881633"></polygon>
                <polygon id="Fill-5" points="31.4816327 36.005551 33.1142857 36.005551 33.1142857 34.372898 31.4816327 34.372898"></polygon>
                <polygon id="Fill-6" points="31.4816327 39.2708571 33.1142857 39.2708571 33.1142857 37.6373878 31.4816327 37.6373878"></polygon>
                <polygon id="Fill-7" points="29.8489796 37.6382041 31.4816327 37.6382041 31.4816327 36.005551 29.8489796 36.005551"></polygon>
                <polygon id="Fill-8" points="33.1142857 37.6382041 34.7469388 37.6382041 34.7469388 36.005551 33.1142857 36.005551"></polygon>
                <path d="M35.7002449,26.2093061 C35.2488163,26.2093061 34.8839184,25.8444082 34.8839184,25.3929796 C34.8839184,24.9423673 35.2488163,24.5766531 35.7002449,24.5766531 C36.1508571,24.5766531 36.5165714,24.9423673 36.5165714,25.3929796 C36.5165714,25.8444082 36.1508571,26.2093061 35.7002449,26.2093061 M35.7002449,22.944 C34.3475918,22.944 33.2512653,24.0411429 33.2512653,25.3929796 C33.2512653,26.7456327 34.3475918,27.8419592 35.7002449,27.8419592 C37.0520816,27.8419592 38.1492245,26.7456327 38.1492245,25.3929796 C38.1492245,24.0411429 37.0520816,22.944 35.7002449,22.944" id="Fill-9"></path>
                <polygon id="Fill-12" points="0 6.53044898 1.63265306 6.53044898 1.63265306 4.89779592 0 4.89779592"></polygon>
                <path d="M12.6764898,11.9483265 L12.6764898,20.9507755 C12.6764898,21.2258776 12.4528163,21.4503673 12.176898,21.4503673 L3.17281633,21.4503673 C2.89853061,21.4503673 2.67485714,21.2258776 2.67485714,20.9507755 L2.67485714,11.9483265 C2.67485714,11.6732245 2.89853061,11.449551 3.17281633,11.449551 L12.176898,11.449551 C12.4528163,11.449551 12.6764898,11.6732245 12.6764898,11.9483265 M12.176898,9.96383673 L3.17281633,9.96383673 C2.0797551,9.96383673 1.18995918,10.854449 1.18995918,11.9483265 L1.18995918,20.9507755 C1.18995918,22.0446531 2.0797551,22.934449 3.17281633,22.934449 L12.176898,22.934449 C13.2715918,22.934449 14.1613878,22.0446531 14.1613878,20.9507755 L14.1613878,11.9483265 C14.1613878,10.854449 13.2715918,9.96383673 12.176898,9.96383673" id="Fill-14"></path>
                <path d="M12.6764898,27.3094694 L12.6764898,36.3119184 C12.6764898,36.5862041 12.4528163,36.8106939 12.176898,36.8106939 L3.17281633,36.8106939 C2.89853061,36.8106939 2.67485714,36.5862041 2.67485714,36.3119184 L2.67485714,27.3094694 C2.67485714,27.033551 2.89853061,26.8098776 3.17281633,26.8098776 L12.176898,26.8098776 C12.4528163,26.8098776 12.6764898,27.033551 12.6764898,27.3094694 M12.176898,25.3241633 L3.17281633,25.3241633 C2.0797551,25.3241633 1.18995918,26.2147755 1.18995918,27.3094694 L1.18995918,36.3119184 C1.18995918,37.4057959 2.0797551,38.2955918 3.17281633,38.2955918 L12.176898,38.2955918 C13.2715918,38.2955918 14.1613878,37.4057959 14.1613878,36.3119184 L14.1613878,27.3094694 C14.1613878,26.2147755 13.2715918,25.3241633 12.176898,25.3241633" id="Fill-15"></path>
                <path d="M28.3094694,21.6326531 L28.3094694,30.635102 C28.3094694,30.9093878 28.0857959,31.1338776 27.8098776,31.1338776 L18.8057959,31.1338776 C18.5306939,31.1338776 18.3070204,30.9093878 18.3070204,30.635102 L18.3070204,21.6326531 C18.3070204,21.3567347 18.5306939,21.1330612 18.8057959,21.1330612 L27.8098776,21.1330612 C28.0857959,21.1330612 28.3094694,21.3567347 28.3094694,21.6326531 M27.8098776,19.6481633 L18.8057959,19.6481633 C17.7127347,19.6481633 16.8229388,20.5379592 16.8229388,21.6326531 L16.8229388,30.635102 C16.8229388,31.7289796 17.7127347,32.6187755 18.8057959,32.6187755 L27.8098776,32.6187755 C28.9045714,32.6187755 29.793551,31.7289796 29.793551,30.635102 L29.793551,21.6326531 C29.793551,20.5379592 28.9045714,19.6481633 27.8098776,19.6481633" id="Fill-16"></path>
                <path d="M28.3094694,6.38791837 L28.3094694,15.3903673 C28.3094694,15.6654694 28.0857959,15.8899592 27.8098776,15.8899592 L18.8057959,15.8899592 C18.5306939,15.8899592 18.3070204,15.6654694 18.3070204,15.3903673 L18.3070204,6.38791837 C18.3070204,6.11281633 18.5306939,5.88914286 18.8057959,5.88914286 L27.8098776,5.88914286 C28.0857959,5.88914286 28.3094694,6.11281633 28.3094694,6.38791837 M27.8098776,4.40342857 L18.8057959,4.40342857 C17.7127347,4.40342857 16.8229388,5.29404082 16.8229388,6.38791837 L16.8229388,15.3903673 C16.8229388,16.4842449 17.7127347,17.3740408 18.8057959,17.3740408 L27.8098776,17.3740408 C28.9045714,17.3740408 29.793551,16.4842449 29.793551,15.3903673 L29.793551,6.38791837 C29.793551,5.29404082 28.9045714,4.40342857 27.8098776,4.40342857" id="Fill-17"></path>
                <polygon id="Fill-18" points="8.40669388 13.3912653 6.94628571 13.3912653 6.94628571 15.7194286 4.61730612 15.7194286 4.61730612 17.1806531 6.94628571 17.1806531 6.94628571 19.508 8.40669388 19.508 8.40669388 17.1806531 10.7340408 17.1806531 10.7340408 15.7194286 8.40669388 15.7194286"></polygon>
                <polygon id="Fill-19" points="24.9301224 8.21028571 23.2835918 9.85681633 21.6386939 8.21028571 20.6060408 9.24293878 22.2517551 10.8894694 20.6060408 12.5351837 21.6386939 13.5670204 23.2835918 11.9221224 24.9301224 13.5670204 25.9635918 12.5351837 24.3170612 10.8894694 25.9635918 9.24293878"></polygon>
                <polygon id="Fill-20" points="4.61795918 32.5402449 10.7338776 32.5402449 10.7338776 31.0790204 4.61795918 31.0790204"></polygon>
                <polygon id="Fill-21" points="24.9309388 23.4550204 20.6060408 27.779102 21.6395102 28.8117551 25.9635918 24.4876735"></polygon>
                <path d="M21.4902857,25.3642449 C22.056,25.3642449 22.5164082,24.9046531 22.5164082,24.3381224 C22.5164082,23.7724082 22.056,23.312 21.4902857,23.312 C20.9245714,23.312 20.4641633,23.7724082 20.4641633,24.3381224 C20.4641633,24.9046531 20.9245714,25.3642449 21.4902857,25.3642449" id="Fill-22"></path>
                <path d="M25.1262857,26.9483265 C24.5605714,26.9483265 24.1001633,27.4079184 24.1001633,27.974449 C24.1001633,28.5401633 24.5605714,29.0005714 25.1262857,29.0005714 C25.692,29.0005714 26.1524082,28.5401633 26.1524082,27.974449 C26.1524082,27.4079184 25.692,26.9483265 25.1262857,26.9483265" id="Fill-23"></path>
            </g>
        </g>
    </g>
</svg>