<?xml version="1.0" encoding="UTF-8"?>
<svg width="26px" height="34px" viewBox="0 0 26 34" version="1.1" xmlns="http://www.w3.org/2000/svg" xmlns:xlink="http://www.w3.org/1999/xlink">
    <!-- Generator: sketchtool 56.3 (101010) - https://sketch.com -->
    <title>01B70D64-EE34-4CDD-93F9-CEE5A97FC25E</title>
    <desc>Created with sketchtool.</desc>
    <g id="Page-1" stroke="none" stroke-width="1" fill="none" fill-rule="evenodd">
        <g id="Map-View" transform="translate(-82.000000, -61.000000)" fill="#99CC34">
            <g id="Science" transform="translate(82.000000, 61.000000)">
                <path d="M17.1912848,23.2417652 C16.7843283,23.6453304 16.5749152,23.8259174 16.1001326,23.8259174 C15.62535,23.8259174 15.4218717,23.642787 15.0055891,23.2265043 C13.982263,21.9590043 12.1263717,21.7623087 10.8588717,22.784787 C10.6960891,22.9162 10.5485674,23.0645696 10.4171543,23.2265043 C10.0017196,23.642787 9.7982413,23.8259174 9.32176304,23.8259174 C8.84528478,23.8259174 8.64350217,23.6470261 8.23908913,23.2485478 L10.0653065,20.0030696 C10.1365239,19.8750478 10.1738283,19.7317652 10.1738283,19.586787 L10.1738283,14.4998304 L15.2607848,14.4998304 L15.2607848,19.586787 C15.2607848,19.7317652 15.2980891,19.8750478 15.3693065,20.0030696 L17.1912848,23.2417652 Z M3.14535,32.3041783 L7.38448043,24.7720913 C7.91098043,25.2629826 8.60619783,25.5308957 9.32600217,25.5215696 C10.2128283,25.5097 11.0496326,25.1086783 11.6151326,24.4253304 C12.0297196,24.0098957 12.2340457,23.8259174 12.7096761,23.8259174 C13.1853065,23.8259174 13.387937,24.0098957 13.8042196,24.4253304 C14.3714152,25.1103739 15.210763,25.5122435 16.1001326,25.5215696 C16.8233283,25.5308957 17.5227848,25.2595913 18.0501326,24.7644609 L22.289263,32.3041783 L3.14535,32.3041783 Z M10.1738283,12.8041783 L15.2607848,12.8041783 L15.2607848,11.1085261 L10.1738283,11.1085261 L10.1738283,12.8041783 Z M16.956437,10.2607 C16.956437,9.7927 16.5766109,9.41287391 16.1086109,9.41287391 L9.32600217,9.41287391 C8.85800217,9.41287391 8.47817609,9.7927 8.47817609,10.2607 L8.47817609,19.3646565 L0.956263043,32.7365696 C0.72735,33.1452217 0.871480435,33.6615478 1.28013261,33.8913087 C1.4064587,33.9633739 1.5497413,33.9998304 1.69556739,33.9998304 L23.7390457,33.9998304 C24.2078935,33.9998304 24.5868717,33.6208522 24.5868717,33.1520043 C24.5868717,33.0070261 24.5495674,32.8637435 24.47835,32.7365696 L16.956437,19.3646565 L16.956437,10.2607 Z" id="Fill-1"></path>
                <polygon id="Fill-3" points="8.47826087 28.9130435 10.173913 28.9130435 10.173913 27.2173913 8.47826087 27.2173913"></polygon>
                <polygon id="Fill-5" points="11.8695652 30.6086957 13.5652174 30.6086957 13.5652174 28.9130435 11.8695652 28.9130435"></polygon>
                <polygon id="Fill-6" points="16.1086957 28.9130435 17.8043478 28.9130435 17.8043478 27.2173913 16.1086957 27.2173913"></polygon>
                <polygon id="Fill-7" points="14.4130435 1.7826087 16.1086957 1.7826087 16.1086957 0.0869565217 14.4130435 0.0869565217"></polygon>
                <polygon id="Fill-8" points="14.4130435 5.17391304 16.1086957 5.17391304 16.1086957 3.47826087 14.4130435 3.47826087"></polygon>
                <polygon id="Fill-9" points="12.7173913 3.47826087 14.4130435 3.47826087 14.4130435 1.7826087 12.7173913 1.7826087"></polygon>
                <polygon id="Fill-10" points="16.1086957 3.47826087 17.8043478 3.47826087 17.8043478 1.7826087 16.1086957 1.7826087"></polygon>
                <polygon id="Fill-11" points="21.1956522 14.5 22.8913043 14.5 22.8913043 12.8043478 21.1956522 12.8043478"></polygon>
                <polygon id="Fill-12" points="21.1956522 17.8913043 22.8913043 17.8913043 22.8913043 16.1956522 21.1956522 16.1956522"></polygon>
                <polygon id="Fill-13" points="19.5 16.1956522 21.1956522 16.1956522 21.1956522 14.5 19.5 14.5"></polygon>
                <polygon id="Fill-14" points="22.8913043 16.1956522 24.5869565 16.1956522 24.5869565 14.5 22.8913043 14.5"></polygon>
                <path d="M4.23913043,12.8045174 C4.23913043,13.2725174 3.85930435,13.6523435 3.39130435,13.6523435 C2.92330435,13.6523435 2.54347826,13.2725174 2.54347826,12.8045174 C2.54347826,12.3356696 2.92330435,11.9566913 3.39130435,11.9566913 C3.85930435,11.9566913 4.23913043,12.3356696 4.23913043,12.8045174 M0.847826087,12.8045174 C0.847826087,14.2093652 1.98645652,15.3479957 3.39130435,15.3479957 C4.79615217,15.3479957 5.93478261,14.2093652 5.93478261,12.8045174 C5.93478261,11.3996696 4.79615217,10.2610391 3.39130435,10.2610391 C1.98645652,10.2610391 0.847826087,11.3996696 0.847826087,12.8045174" id="Fill-16"></path>
                <polygon id="Fill-19" points="5.4566087 6.02173913 7.15226087 6.02173913 7.15226087 4.32608696 5.4566087 4.32608696"></polygon>
                <polygon id="Fill-20" points="23.7391304 8.56521739 25.4347826 8.56521739 25.4347826 6.86956522 23.7391304 6.86956522"></polygon>
            </g>
        </g>
    </g>
</svg>