<?xml version="1.0" encoding="UTF-8"?>
<svg width="45px" height="38px" viewBox="0 0 45 38" version="1.1" xmlns="http://www.w3.org/2000/svg" xmlns:xlink="http://www.w3.org/1999/xlink">
    <!-- Generator: sketchtool 56.3 (101010) - https://sketch.com -->
    <title>942A6874-414F-44FB-8A19-7671BF82453A</title>
    <desc>Created with sketchtool.</desc>
    <g id="Page-1" stroke="none" stroke-width="1" fill="none" fill-rule="evenodd">
        <g id="Map-View" transform="translate(-229.000000, -60.000000)" fill="#F9B234">
            <g id="Engineering" transform="translate(229.000000, 60.000000)">
                <polygon id="Fill-1" points="18.7115385 2.03998077 20.4423077 2.03998077 20.4423077 0.309211538 18.7115385 0.309211538"></polygon>
                <polygon id="Fill-2" points="18.7115385 5.50151923 20.4423077 5.50151923 20.4423077 3.77075 18.7115385 3.77075"></polygon>
                <polygon id="Fill-3" points="16.9807692 3.77075 18.7115385 3.77075 18.7115385 2.03998077 16.9807692 2.03998077"></polygon>
                <polygon id="Fill-4" points="20.4423077 3.77075 22.1730769 3.77075 22.1730769 2.03998077 20.4423077 2.03998077"></polygon>
                <polygon id="Fill-5" points="38.6153846 27.2287308 40.3461538 27.2287308 40.3461538 25.4979615 38.6153846 25.4979615"></polygon>
                <polygon id="Fill-6" points="38.6153846 30.6902692 40.3461538 30.6902692 40.3461538 28.9595 38.6153846 28.9595"></polygon>
                <polygon id="Fill-7" points="36.8846154 28.9595 38.6153846 28.9595 38.6153846 27.2287308 36.8846154 27.2287308"></polygon>
                <polygon id="Fill-8" points="40.3461538 28.9595 42.0769231 28.9595 42.0769231 27.2287308 40.3461538 27.2287308"></polygon>
                <polygon id="Fill-9" points="2.01923077 19.5963269 3.75086538 19.5963269 3.75086538 17.8655577 2.01923077 17.8655577"></polygon>
                <polygon id="Fill-10" points="2.01923077 23.0578654 3.75 23.0578654 3.75 21.3270962 2.01923077 21.3270962"></polygon>
                <polygon id="Fill-11" points="0.288461538 21.3270962 2.01923077 21.3270962 2.01923077 19.5963269 0.288461538 19.5963269"></polygon>
                <polygon id="Fill-12" points="3.75 21.3270962 5.48076923 21.3270962 5.48076923 19.5963269 3.75 19.5963269"></polygon>
                <path d="M42.0771827,21.0787019 C41.598625,21.0787019 41.2117981,20.691875 41.2117981,20.2133173 C41.2117981,19.735625 41.598625,19.3479327 42.0771827,19.3479327 C42.554875,19.3479327 42.9425673,19.735625 42.9425673,20.2133173 C42.9425673,20.691875 42.554875,21.0787019 42.0771827,21.0787019 M42.0771827,17.6171635 C40.6432404,17.6171635 39.4810288,18.779375 39.4810288,20.2133173 C39.4810288,21.6472596 40.6432404,22.8094712 42.0771827,22.8094712 C43.5102596,22.8094712 44.6733365,21.6472596 44.6733365,20.2133173 C44.6733365,18.779375 43.5102596,17.6171635 42.0771827,17.6171635" id="Fill-15"></path>
                <polygon id="Fill-20" points="9.56961538 6.36690385 11.3003846 6.36690385 11.3003846 4.63613462 9.56961538 4.63613462"></polygon>
                <polygon id="Fill-21" points="35.1538462 22.8092115 36.8846154 22.8092115 36.8846154 21.0784423 35.1538462 21.0784423"></polygon>
                <path d="M28.3730385,26.4146635 C28.2865,26.9512019 28.1454423,27.4782212 27.9541923,27.9844712 C27.8416923,28.2821635 27.9239038,28.6257212 28.1601538,28.8386058 L29.5854423,30.1323558 C29.4980385,30.2941827 29.4080385,30.4534135 29.3171731,30.6048558 L27.4894808,30.0155288 C27.1822692,29.9160096 26.8508269,30.0137981 26.6448654,30.2638942 C26.3030385,30.6827404 25.9153462,31.0704327 25.4913077,31.4174519 C25.2455385,31.6190865 25.1460192,31.9574519 25.2438077,32.2612019 L25.8314038,34.0888942 C25.6816923,34.180625 25.5233269,34.270625 25.3606346,34.3588942 L24.06775,32.931875 C23.8514038,32.6930288 23.5156346,32.6108173 23.2118846,32.7250481 C22.7090962,32.9162981 22.1812115,33.0582212 21.6429423,33.1447596 C21.3288077,33.1958173 21.0726538,33.4389904 21.0051538,33.7505288 L20.5984231,35.6405288 C20.4115,35.6483173 20.2306346,35.6474519 20.0506346,35.6405288 L19.6430385,33.7496635 C19.5746731,33.438125 19.3185192,33.1958173 19.00525,33.1447596 C18.4678462,33.0582212 17.9390962,32.9162981 17.4354423,32.7259135 C17.1334231,32.6082212 16.7985192,32.6912981 16.5813077,32.931875 L15.2884231,34.3580288 C15.1291923,34.2723558 14.9716923,34.1823558 14.8150577,34.0880288 L15.4043846,32.2603365 C15.5030385,31.953125 15.4061154,31.6225481 15.1560192,31.4157212 C14.7371731,31.0747596 14.3486154,30.6862019 14.0024615,30.2621635 C13.7956346,30.0112019 13.4633269,29.9142788 13.1578462,30.0146635 L11.3301538,30.6039904 C11.2366923,30.4499519 11.1475577,30.2907212 11.0601538,30.130625 L12.4880385,28.8377404 C12.72775,28.6205288 12.8082308,28.2847596 12.694,27.9827404 C12.50275,27.4782212 12.3616923,26.9503365 12.2742885,26.4137981 C12.2223654,26.0953365 11.98525,25.8452404 11.6685192,25.7760096 L9.77765385,25.3692788 C9.77332692,25.2792788 9.77159615,25.1875481 9.77159615,25.0966827 C9.77159615,25.0049519 9.77332692,24.9140865 9.77765385,24.8223558 L11.6676538,24.4138942 C11.9835192,24.3463942 12.2215,24.0962981 12.2734231,23.7769712 C12.3599615,23.2404327 12.5010192,22.7125481 12.6931346,22.2080288 C12.8073654,21.9060096 12.7268846,21.5702404 12.4871731,21.3530288 L11.0601538,20.0610096 C11.1492885,19.8965865 11.2384231,19.7382212 11.3301538,19.5867788 L13.1587115,20.1761058 C13.4598654,20.275625 13.7999615,20.174375 14.0024615,19.9277404 C14.3460192,19.5071635 14.7337115,19.1177404 15.1560192,18.7741827 C15.4026538,18.5716827 15.5021731,18.2333173 15.4035192,17.9295673 L14.8150577,16.101875 C14.9665,16.0110096 15.124,15.9201442 15.2875577,15.8327404 L16.5804423,17.260625 C16.7985192,17.4986058 17.1334231,17.5808173 17.4354423,17.4657212 C17.9390962,17.2744712 18.4678462,17.1334135 19.0043846,17.046875 C19.3228462,16.9940865 19.5729423,16.7569712 19.6421731,16.4411058 L20.0497692,14.5502404 C20.2323654,14.5433173 20.4140962,14.5433173 20.5966923,14.5502404 L21.0042885,16.4411058 C21.0735192,16.7569712 21.3236154,16.9940865 21.6429423,17.046875 C22.17775,17.1334135 22.7056346,17.2744712 23.2110192,17.4648558 C23.5139038,17.5825481 23.8496731,17.4986058 24.0660192,17.2597596 L25.3597692,15.8336058 C25.5224615,15.9210096 25.6808269,16.011875 25.8314038,16.1027404 L25.2438077,17.9304327 C25.1451538,18.2385096 25.2420769,18.5699519 25.4913077,18.7750481 C25.9084231,19.1142788 26.2969808,19.5037019 26.6448654,19.9286058 C26.8465,20.1752404 27.1857308,20.2747596 27.4894808,20.1769712 L29.3171731,19.5876442 C29.4089038,19.7399519 29.4997692,19.8983173 29.5863077,20.0601442 L28.1601538,21.3521635 C27.9204423,21.569375 27.8390962,21.9060096 27.9533269,22.2080288 C28.1445769,22.7125481 28.2856346,23.2395673 28.3730385,23.7769712 C28.4240962,24.0902404 28.6672692,24.3463942 28.9779423,24.4138942 L30.8696731,24.8223558 C30.874,24.9140865 30.8757308,25.0049519 30.8757308,25.0966827 C30.8757308,25.1875481 30.874,25.2792788 30.8696731,25.3692788 L28.9788077,25.7777404 C28.6638077,25.8452404 28.4258269,26.0953365 28.3730385,26.4146635 M31.7748654,23.4212981 L29.8121731,22.998125 C29.7498654,22.7134135 29.6754423,22.4330288 29.5897692,22.1638942 L31.0747692,20.8173558 C31.3283269,20.5888942 31.40275,20.2133173 31.2556346,19.9052404 C30.9665962,19.2960096 30.6412115,18.7283173 30.289,18.216875 C30.0951538,17.9364904 29.7342885,17.8136058 29.4071731,17.9191827 L27.5007308,18.5336058 C27.3060192,18.3198558 27.0991923,18.1130288 26.8854423,17.9183173 L27.4998654,16.011875 C27.6063077,15.6812981 27.4868846,15.3264904 27.2013077,15.1300481 C26.6941923,14.7795673 26.1265,14.4541827 25.5146731,14.1642788 C25.2005385,14.0128365 24.8336154,14.0855288 24.6016923,14.3442788 L23.2551538,15.8292788 C22.9799615,15.7427404 22.6995769,15.6674519 22.4209231,15.606875 L21.99775,13.6441827 C21.9241923,13.3058173 21.6429423,13.0583173 21.2976538,13.030625 C20.6555385,12.9787019 19.9995769,12.9787019 19.3488077,13.030625 C19.0087115,13.0565865 18.7205385,13.3092788 18.6487115,13.6441827 L18.2246731,15.606875 C17.9416923,15.6683173 17.6621731,15.7436058 17.3913077,15.8292788 L16.0456346,14.3442788 C15.8128462,14.0872596 15.4459231,14.0137019 15.1317885,14.1634135 C14.5190962,14.4541827 13.9522692,14.7795673 13.4442885,15.1300481 C13.1595769,15.3264904 13.0392885,15.6812981 13.1457308,16.011875 L13.7601538,17.9183173 C13.5464038,18.1138942 13.3404423,18.3198558 13.1457308,18.5336058 L11.2392885,17.9191827 C10.9087115,17.811875 10.5556346,17.9321635 10.3583269,18.216875 C10.0069808,18.7248558 9.68159615,19.2925481 9.39082692,19.904375 C9.24457692,20.2133173 9.31813462,20.5888942 9.57169231,20.8173558 L11.0575577,22.1638942 C10.9710192,22.4373558 10.8965962,22.7177404 10.8342885,22.998125 L8.87246154,23.4212981 C8.53323077,23.4948558 8.28659615,23.7761058 8.25890385,24.1222596 C8.23467308,24.4312019 8.20957692,24.7609135 8.20957692,25.0966827 C8.20957692,25.4307212 8.23467308,25.7604327 8.25890385,26.0702404 L8.25890385,26.0711058 C8.28659615,26.4112019 8.53842308,26.699375 8.87246154,26.7703365 L10.8342885,27.1935096 C10.8974615,27.4782212 10.9718846,27.7586058 11.0566923,28.0277404 L9.57169231,29.3734135 C9.31553846,29.6062019 9.24284615,29.973125 9.39082692,30.2872596 C9.68246154,30.9008173 10.0078462,31.4676442 10.3583269,31.9738942 C10.5547692,32.2577404 10.9078462,32.3780288 11.2392885,32.2733173 L13.1457308,31.6588942 C13.3421731,31.8726442 13.5481346,32.0786058 13.7610192,32.2733173 L13.1465962,34.180625 C13.0401538,34.5094712 13.1604423,34.8642788 13.4451538,35.0615865 C13.9531346,35.4120673 14.5199615,35.7374519 15.1326538,36.0282212 C15.4459231,36.1770673 15.8128462,36.104375 16.0456346,35.8473558 L17.3921731,34.3623558 C17.6673654,34.4488942 17.9468846,34.5241827 18.2255385,34.5847596 L18.6495769,36.5474519 C18.7231346,36.8858173 19.0043846,37.1324519 19.3496731,37.1610096 C19.6767885,37.1861058 19.9978462,37.2094712 20.3232308,37.2094712 C20.6486154,37.2094712 20.9696731,37.1861058 21.2976538,37.1610096 C21.6438077,37.1333173 21.9250577,36.8866827 21.9986154,36.5474519 L22.4209231,34.5847596 C22.6995769,34.5241827 22.9799615,34.4488942 23.2560192,34.3623558 L24.6016923,35.8473558 C24.8353462,36.1069712 25.2031346,36.1762019 25.5146731,36.0282212 C26.1230385,35.7391827 26.6915962,35.4137981 27.2021731,35.0615865 C27.48775,34.8642788 27.6071731,34.5094712 27.5007308,34.180625 L26.8863077,32.2733173 C27.0991923,32.0777404 27.3060192,31.8717788 27.5007308,31.6588942 L29.4080385,32.2733173 C29.7386154,32.380625 30.0908269,32.2594712 30.2898654,31.9747596 C30.6386154,31.4702404 30.964,30.9034135 31.2565,30.288125 C31.4053462,29.9739904 31.3326538,29.6062019 31.0756346,29.3742788 L29.5897692,28.0277404 C29.6771731,27.7525481 29.7524615,27.4730288 29.8130385,27.1935096 L31.7757308,26.7703365 C32.1132308,26.6976442 32.3598654,26.4172596 32.3892885,26.0702404 C32.4143846,25.743125 32.4368846,25.4220673 32.4368846,25.0966827 C32.4368846,24.7600481 32.4126538,24.4312019 32.3884231,24.123125 C32.3598654,23.7761058 32.1132308,23.4948558 31.7748654,23.4212981" id="Fill-22"></path>
                <path d="M37.1823077,9.02588462 C36.9365385,9.10376923 36.7444231,9.29761538 36.67,9.54598077 C36.5921154,9.80213462 36.49,10.0513654 36.3653846,10.2832885 C36.2416346,10.5126154 36.2407692,10.7860769 36.3610577,11.0136731 L37.0568269,12.3498269 C36.9763462,12.4363654 36.8906731,12.5220385 36.8041346,12.60425 L35.4688462,11.90675 C35.2386538,11.7864615 34.9651923,11.7890577 34.7375962,11.9110769 C34.5048077,12.0365577 34.2564423,12.1386731 34.0002885,12.2156923 C33.7519231,12.28925 33.5572115,12.4822308 33.4793269,12.7297308 L33.0258654,14.1723269 C32.9055769,14.1766538 32.7904808,14.1749625 32.6710577,14.1723269 L32.2184615,12.7288654 C32.1397115,12.4822308 31.945,12.2901154 31.6983654,12.2156923 C31.4396154,12.1386731 31.1921154,12.0365577 30.9610577,11.9110769 C30.7317308,11.7890577 30.4582692,11.7873269 30.2298077,11.90675 L28.8945192,12.60425 C28.8071154,12.5220385 28.7223077,12.4363654 28.6400962,12.3498269 L29.3375962,11.0136731 C29.4570192,10.7834808 29.4552885,10.5108846 29.3332692,10.2841538 C29.2077885,10.0513654 29.1056731,9.80213462 29.0286538,9.54598077 C28.9542308,9.29848077 28.7629808,9.10376923 28.5146154,9.02588462 L27.0711538,8.57242308 C27.0694231,8.51184615 27.0685577,8.453 27.0685577,8.39501923 C27.0685577,8.33790385 27.0694231,8.27905769 27.0711538,8.21848077 L28.5154808,7.76501923 C28.7621154,7.68713462 28.9533654,7.49242308 29.0277885,7.24405769 C29.1056731,6.98703846 29.2077885,6.73867308 29.3332692,6.50761538 C29.4561538,6.27915385 29.4570192,6.00569231 29.3375962,5.77636538 L28.6400962,4.44021154 C28.7231731,4.35280769 28.8071154,4.268 28.8945192,4.18665385 L30.2298077,4.88328846 C30.4574038,5.00271154 30.7308654,5.00184615 30.9610577,4.87896154 C31.1938462,4.75434615 31.4413462,4.65223077 31.6975,4.57434615 C31.945,4.50078846 32.1397115,4.30867308 32.2193269,4.06117308 L32.6710577,2.61857692 C32.7913462,2.61425 32.9064423,2.61425 33.0258654,2.61857692 L33.4793269,4.06117308 C33.5572115,4.30780769 33.7510577,4.49992308 33.9994231,4.57434615 C34.2564423,4.65223077 34.5048077,4.75434615 34.7367308,4.87896154 C34.9643269,5.00098077 35.2386538,5.00357692 35.4688462,4.88328846 L36.8041346,4.18665385 C36.8906731,4.268 36.9763462,4.35367308 37.0568269,4.44021154 L36.3610577,5.77636538 C36.2407692,6.00655769 36.2425,6.28001923 36.3653846,6.50675 C36.49,6.73953846 36.5921154,6.98790385 36.6691346,7.24405769 C36.7435577,7.49155769 36.9356731,7.68626923 37.1831731,7.76501923 L38.6266346,8.21848077 C38.6283654,8.27905769 38.6292308,8.33790385 38.6292308,8.39501923 C38.6292308,8.453 38.6283654,8.51184615 38.6266346,8.57242308 L37.1831731,9.02588462 L37.1823077,9.02588462 Z M39.5958654,9.90338462 C39.8892308,9.81165385 40.10125,9.55463462 40.1367308,9.24915385 C40.1730769,8.94280769 40.19125,8.66415385 40.19125,8.39501923 C40.19125,8.12675 40.1730769,7.84723077 40.1367308,7.54175 C40.1029808,7.23626923 39.8900962,6.97838462 39.5958654,6.88665385 L38.0286538,6.39338462 C37.9957692,6.31203846 37.9628846,6.23069231 37.9265385,6.14934615 L38.6872115,4.69376923 C38.8282692,4.42117308 38.7971154,4.08973077 38.6075962,3.84828846 C38.2519231,3.40001923 37.8451923,2.99242308 37.3969231,2.63761538 C37.1563462,2.44809615 36.8249038,2.41694231 36.5514423,2.55713462 L35.0941346,3.31780769 C35.0136538,3.28232692 34.9323077,3.24944231 34.8509615,3.21742308 L34.3576923,1.64934615 C34.2659615,1.35598077 34.0089423,1.14309615 33.7025962,1.10761538 C33.0881731,1.03665385 32.6096154,1.03665385 31.9943269,1.10761538 C31.6888462,1.14309615 31.4318269,1.35598077 31.3392308,1.64934615 L30.8476923,3.21742308 C30.7646154,3.24944231 30.6832692,3.28232692 30.6027885,3.31780769 L29.1463462,2.55713462 C28.8728846,2.41694231 28.5423077,2.44982692 28.3008654,2.63761538 C27.8534615,2.99242308 27.4458654,3.40001923 27.0910577,3.84828846 C26.8998077,4.08886538 26.8686538,4.42117308 27.0105769,4.69376923 L27.7703846,6.15021154 C27.7349038,6.23069231 27.7011538,6.31203846 27.67,6.39338462 L26.1019231,6.88665385 C25.8076923,6.97838462 25.5956731,7.23540385 25.5601923,7.54175 C25.5247115,7.85069231 25.5074038,8.12934615 25.5074038,8.39501923 C25.5074038,8.66155769 25.5247115,8.94021154 25.5601923,9.24915385 C25.5956731,9.55463462 25.8076923,9.81251923 26.1019231,9.90338462 L27.67,10.3966538 C27.7011538,10.4788654 27.7349038,10.5602115 27.7703846,10.6406923 L27.0105769,12.0971346 C26.8686538,12.368 26.8998077,12.6994423 27.0901923,12.94175 C27.445,13.3900192 27.8525962,13.7976154 28.3008654,14.1532885 C28.5414423,14.3428077 28.8720192,14.3756923 29.1463462,14.2337692 L30.6019231,13.4739615 C30.6832692,13.5085769 30.7646154,13.5423269 30.8468269,13.5734808 L31.3392308,15.1415577 C31.4309615,15.4349231 31.6879808,15.6469423 31.9943269,15.6824231 C32.3015385,15.7187692 32.5819231,15.7369423 32.8484615,15.7369423 C33.1141346,15.7369423 33.3936538,15.7187692 33.7025962,15.6832885 C34.0089423,15.6478077 34.2659615,15.4357885 34.3576923,15.1424231 L34.8509615,13.5743462 C34.9323077,13.5431923 35.0136538,13.5094423 35.0941346,13.4739615 L36.5505769,14.2337692 C36.8240385,14.3756923 37.1563462,14.3436731 37.3960577,14.1541538 C37.8434615,13.8002115 38.2501923,13.3934808 38.6067308,12.9434808 C38.7971154,12.7020385 38.8282692,12.3697308 38.6863462,12.098 L37.9265385,10.6415577 C37.9620192,10.5610769 37.9957692,10.4797308 38.0277885,10.3975192 L39.5958654,9.90338462 Z" id="Fill-23"></path>
                <path d="M20.3234038,30.2801635 C17.4650385,30.2801635 15.13975,27.9540096 15.13975,25.0965096 C15.13975,22.2381442 17.4650385,19.9128558 20.3234038,19.9128558 C23.1817692,19.9128558 25.5070577,22.2381442 25.5070577,25.0965096 C25.5070577,27.9540096 23.1817692,30.2801635 20.3234038,30.2801635 M20.3234038,18.3508365 C16.6039808,18.3508365 13.5777308,21.3770865 13.5777308,25.0965096 C13.5777308,28.8159327 16.6039808,31.8413173 20.3234038,31.8413173 C24.0428269,31.8413173 27.0690769,28.8159327 27.0690769,25.0965096 C27.0690769,21.3770865 24.0428269,18.3508365 20.3234038,18.3508365" id="Fill-24"></path>
                <path d="M9.20606731,16.0757404 C9.23895192,16.1034327 9.28049038,16.1190096 9.32375962,16.1190096 C9.32981731,16.1190096 9.33414423,16.1181442 9.34020192,16.1181442 C9.38866346,16.1138173 9.43366346,16.0904519 9.46481731,16.052375 C12.1604904,12.8192981 16.1178942,10.9647788 20.3236635,10.9647788 C20.4863558,10.9647788 20.6499135,10.9699712 20.8126058,10.9777596 L20.3677981,11.4225673 C20.2959712,11.4943942 20.2959712,11.6103558 20.3677981,11.6821827 L21.2115481,12.5250673 C21.2842404,12.5960288 21.3993365,12.5960288 21.4720288,12.5250673 L23.2607788,10.7363173 C23.4087596,10.5892019 23.4901058,10.3927596 23.4901058,10.1842019 C23.4901058,9.97650962 23.4087596,9.78006731 23.2607788,9.63295192 L21.4720288,7.84333654 C21.3993365,7.77150962 21.2842404,7.77150962 21.2115481,7.84333654 L20.3677981,8.68708654 C20.2959712,8.75891346 20.2959712,8.87574038 20.3677981,8.94756731 L20.8377019,9.41660577 C20.6611635,9.40881731 20.4932788,9.40449038 20.3236635,9.40449038 C15.6540481,9.40449038 11.259625,11.4632404 8.26625962,15.0528558 C8.20135577,15.1307404 8.21174038,15.2467019 8.289625,15.3116058 L9.20606731,16.0757404 Z" id="Fill-25"></path>
                <path d="M34.4543558,8.39545192 C34.4543558,9.28074038 33.7343558,10.0007404 32.8490673,10.0007404 C31.9637788,10.0007404 31.2437788,9.28074038 31.2437788,8.39545192 C31.2437788,7.51016346 31.9637788,6.79016346 32.8490673,6.79016346 C33.7343558,6.79016346 34.4543558,7.51016346 34.4543558,8.39545192 M32.8490673,5.22900962 C31.1027212,5.22900962 29.6817596,6.64910577 29.6817596,8.39545192 C29.6817596,10.1409327 31.1027212,11.5610288 32.8490673,11.5610288 C34.5945481,11.5610288 36.0155096,10.1409327 36.0155096,8.39545192 C36.0155096,6.64910577 34.5945481,5.22900962 32.8490673,5.22900962" id="Fill-26"></path>
                <path d="M44.8552885,2.93729808 C44.8284615,2.896625 44.7860577,2.86806731 44.7384615,2.85854808 L41.7563462,2.26229808 C41.5529808,2.22075962 41.3435577,2.26143269 41.1696154,2.37739423 C40.9956731,2.49249038 40.8779808,2.66902885 40.8373077,2.874125 L40.2410577,5.85710577 C40.2211538,5.95575962 40.2851923,6.05354808 40.3847115,6.07345192 L41.5547115,6.30710577 C41.6568269,6.32700962 41.7511538,6.26210577 41.7710577,6.16345192 L41.97875,5.12758654 C42.3941346,6.16345192 42.6113462,7.28152885 42.6113462,8.39527885 C42.6113462,10.4090288 41.9475962,12.3033558 40.6901923,13.8714327 C40.6590385,13.9095096 40.6451923,13.9579712 40.65125,14.0072981 C40.6555769,14.0548942 40.6806731,14.0998942 40.71875,14.1301827 L41.6499038,14.8761442 C41.6827885,14.9029712 41.7234615,14.9168173 41.765,14.9168173 C41.7719231,14.9168173 41.7779808,14.9159519 41.7849038,14.9150865 C41.8333654,14.9098942 41.8783654,14.8856635 41.9086538,14.8475865 C43.3685577,13.0250865 44.1733654,10.7335481 44.1733654,8.39527885 C44.1733654,6.93883654 43.8600962,5.48066346 43.2629808,4.15575962 L44.4321154,4.38941346 C44.5342308,4.40845192 44.6285577,4.34354808 44.6484615,4.24489423 L44.8821154,3.07489423 C44.8925,3.02729808 44.8821154,2.97797115 44.8552885,2.93729808" id="Fill-27"></path>
            </g>
        </g>
    </g>
</svg>