<svg xmlns="http://www.w3.org/2000/svg" width="142.179" height="230.107" viewBox="0 0 142.179 230.107"><defs><style>.a{fill:#fff;}.b{fill:#e3a129;}.c{fill:#f9b334;}</style></defs><g transform="translate(-255.5 -55.999)"><path class="a" d="M75,254.1v0l-.5-1.032V138.5h.006a44,44,0,1,0-.006-88V24.1c1.321-.066,2.656-.1,3.968-.1.317,0,.633,0,.939.005a79.349,79.349,0,0,1,18.91,4.546c1.379.483,2.766,1.02,4.124,1.594A70.592,70.592,0,0,1,124.85,45.254c.385.385.768.777,1.139,1.166A69.218,69.218,0,0,1,137.35,61.744a67.869,67.869,0,0,1,6.818,18.6,74.888,74.888,0,0,1,1.232,21.535A95.186,95.186,0,0,1,140,126c-.246.634-3.4,7.436-6,12.667-10.3,20.72-35.774,70.715-49.458,97.575l-.008.015-.016.032-.008.017c-5.172,10.15-8.349,16.389-8.872,17.437l-.26-.422L75,254.1Zm-.5-144.6h0v-30a15,15,0,0,1,15,15,15,15,0,0,1-15,15Z" transform="translate(252 32)"/><path class="b" d="M75,254.1v0l-.5-1.034V138.5h.007a44,44,0,1,0-.007-88V24.1c1.322-.066,2.657-.1,3.968-.1.317,0,.633,0,.94.005a79.37,79.37,0,0,1,18.91,4.546c1.4.49,2.783,1.027,4.124,1.594a70.592,70.592,0,0,1,22.409,15.109c.384.385.767.777,1.139,1.166a69.219,69.219,0,0,1,11.361,15.324,67.871,67.871,0,0,1,6.818,18.6,74.92,74.92,0,0,1,1.231,21.535A95.222,95.222,0,0,1,140,126c-.25.64-3.407,7.451-6,12.667-10.3,20.721-35.773,70.713-49.456,97.571l-.01.019-.017.032-.008.017-.155.3-.007.013c-4.929,9.676-8.186,16.068-8.71,17.12l-.26-.422L75,254.1Zm-.5-144.6h0v-30a15,15,0,0,1,0,30Z" transform="translate(252 32)"/><path class="c" d="M3.967,230.1c-1.317,0-2.652-.033-3.967-.1V203.6H.009a43.712,43.712,0,0,0,17.118-3.457,43.849,43.849,0,0,0,13.986-9.43,43.867,43.867,0,0,0,9.43-13.985,44.156,44.156,0,0,0,0-34.254,43.872,43.872,0,0,0-9.43-13.986,43.873,43.873,0,0,0-13.986-9.43A43.721,43.721,0,0,0,0,115.6V1.035L.5,0,.878.782l.259-.42C1.644,1.378,4.688,7.354,9.3,16.4l.662,1.3.007.013c13.706,26.9,39.219,76.982,49.536,97.726,2.607,5.243,5.757,12.039,6,12.667a95.234,95.234,0,0,1,5.4,24.1,74.918,74.918,0,0,1-1.224,21.521,67.862,67.862,0,0,1-6.8,18.6,69.205,69.205,0,0,1-11.34,15.322c-.4.416-.795.823-1.182,1.21a71.028,71.028,0,0,1-10.435,8.609,70.539,70.539,0,0,1-11.975,6.5c-1.359.575-2.746,1.111-4.122,1.593A79.328,79.328,0,0,1,4.908,230.1C4.6,230.1,4.28,230.1,3.967,230.1ZM0,174.6H0v-30A14.9,14.9,0,0,1,10.607,149,14.9,14.9,0,0,1,15,159.6a15,15,0,0,1-3.629,9.782,15.006,15.006,0,0,1-8.995,5.03A15.158,15.158,0,0,1,0,174.6Z" transform="translate(326.678 286.104) rotate(180)"/></g></svg>