<svg xmlns="http://www.w3.org/2000/svg" width="142.59" height="231.765" viewBox="0 0 142.59 231.765"><defs><style>.a{fill:#fff;stroke:#fff;}.b{stroke:none;}.c{fill:none;}</style></defs><g transform="translate(-255.591 -55.5)"><g transform="translate(4 1)"><path class="a" d="M67,229.1v0l-3.335-6.914c-4.026-6.71-10.348-17.422-17.6-30.351-8.777-15.651-16.616-30.45-23.3-43.986-8.611-17.437-15.239-32.658-19.7-45.241A150.381,150.381,0,0,1-2.53,83.388c-1.24-5.976-1.645-10.988-1.2-14.9.025-8.459,2.5-17.7,4.579-23.971A53.878,53.878,0,0,1,8.208,30.333,71.129,71.129,0,0,1,20.523,17.095a71.176,71.176,0,0,1,7.061-5.449A70.264,70.264,0,0,1,51.915,1.218,78.337,78.337,0,0,1,70.468-1c.313,0,.629,0,.939.006a79.328,79.328,0,0,1,18.91,4.546c1.383.485,2.771,1.022,4.124,1.594a70.59,70.59,0,0,1,22.409,15.109c.382.382.765.775,1.139,1.166a69.216,69.216,0,0,1,11.361,15.324,67.893,67.893,0,0,1,6.818,18.6A74.912,74.912,0,0,1,137.4,76.885,95.2,95.2,0,0,1,132,101c-.248.637-3.4,7.444-6,12.667-10.276,20.664-35.77,70.705-49.466,97.589l-.017.033-.009.017c-5.023,9.859-8.341,16.373-8.871,17.437l-.26-.422L67,229.1ZM66.5,25.5a43.869,43.869,0,1,0,17.127,3.458A43.726,43.726,0,0,0,66.5,25.5Zm0,59a15,15,0,1,1,15-15A15.017,15.017,0,0,1,66.5,84.5Z" transform="translate(256 56)"/><g class="a" transform="translate(307 110)"><circle class="b" cx="15.5" cy="15.5" r="15.5"/><circle class="c" cx="15.5" cy="15.5" r="15"/></g></g></g></svg>