<svg xmlns="http://www.w3.org/2000/svg" width="142.627" height="230.768" viewBox="0 0 142.627 230.768"><defs><style>.a,.b,.d{fill:#3babe2;}.b{stroke:rgba(112,112,112,0);}.c{fill:#fff;}.c,.d,.e{stroke:#000;}.e,.h{fill:none;}.f,.g{stroke:none;}.g{fill:rgba(112,112,112,0);}</style></defs><g transform="translate(-93.765 -43.395)"><g class="a" transform="translate(228 274) rotate(180)"><path class="f" d="M62.5,0,125,126H0Z"/><path class="g" d="M 62.50000762939453 2.250396728515625 L 1.612289428710938 125 L 123.3877029418945 125 L 62.50000762939453 2.250396728515625 M 62.50000762939453 0 L 125.0000076293945 126 L -7.62939453125e-06 126 L 62.50000762939453 0 Z"/></g><g class="b" transform="translate(94 44)"><circle class="f" cx="71" cy="71" r="71"/><circle class="h" cx="71" cy="71" r="70.5"/></g><g class="c" transform="translate(120 71)"><ellipse class="f" cx="45.5" cy="44.5" rx="45.5" ry="44.5"/><ellipse class="h" cx="45.5" cy="44.5" rx="45" ry="44"/></g><g class="d" transform="translate(149 98)"><circle class="f" cx="17" cy="17" r="17"/><circle class="h" cx="17" cy="17" r="16.5"/></g><path class="e" d="M109.382,160s-15.2-19.679-15.117-46.613c.023-7.518,2.031-16.276,4.579-23.97C106.032,67.7,133.13,43.475,169.408,43.9c42.823,4.848,81.068,43.093,60.6,100.19-1.609,4.145-5.736,9.3-8.08,14.005-1.309,2.626-56.29,115.542-56.29,115.542C164.7,275.587,109.382,160,109.382,160Z"/></g></svg>