<svg xmlns="http://www.w3.org/2000/svg" width="209.983" height="209.318" viewBox="0 0 209.983 209.318"><defs><style>.a{fill:none;stroke:#000;stroke-width:3px;}</style></defs><g transform="translate(-279.016 -311.75)"><path class="a" d="M123.348,191.645c-66.589-20.266-91.2-89.027-91.2-89.027S50.886,88.685,52.416,83.075,45.9,51.952,40.112,34.581-32.992,51.952-9.83,111.3,92.225,230.006,132.758,235.8s64.418-39.809,58.628-50.666-43.853-13.911-49.218-13.028S123.348,191.645,123.348,191.645Z" transform="translate(295.203 283.259)"/><path class="a" d="M413.821,420.238c-5.227-39.678-41.579-33.263-41.579-33.263s-4.039,4.039,0,6.177c2.032,1.076,15,1.78,23.047,8.078,7.513,5.882,10.107,17.354,11.642,19.007C410.02,423.564,413.821,420.238,413.821,420.238Z" transform="translate(0 4.692)"/><path class="a" d="M429.2,432.164c-7.08-53.742-56.317-45.053-56.317-45.053s-5.471,5.471,0,8.367c2.752,1.457,20.318,2.411,31.215,10.941,10.177,7.966,13.689,23.506,15.769,25.745C424.046,436.669,429.2,432.164,429.2,432.164Z" transform="translate(14 -27.758)"/><path class="a" d="M445,444.423c-8.984-68.2-71.466-57.173-71.466-57.173s-6.942,6.942,0,10.618c3.492,1.849,25.784,3.059,39.613,13.885,12.914,10.109,17.372,29.829,20.01,32.67C438.465,450.14,445,444.423,445,444.423Z" transform="translate(31 -60.556)"/></g></svg>