<svg xmlns="http://www.w3.org/2000/svg" width="59.6" height="59.717" viewBox="0 0 59.6 59.717"><defs><style>.a{fill:none;stroke:#fff;stroke-width:3px;}.b{fill:#fff;}</style></defs><g transform="translate(-105.7 -527.983)"><path class="a" d="M0,12.882V3.637S1.061,0,3.637,0h9.851" transform="translate(107.2 586.153) rotate(-90)"/><path class="a" d="M0,12.882V3.637S1.061,0,3.637,0h9.851" transform="translate(163.8 529.53) rotate(90)"/><path class="a" d="M0,12.882V3.637S1.061,0,3.637,0h9.851" transform="translate(163.753 586.2) rotate(180)"/><path class="a" d="M106.6,115.582v-9.245s1.061-3.637,3.637-3.637h9.851" transform="translate(0.647 426.783)"/><path class="a" d="M106.6,112.749v-7.212s.763-2.837,2.616-2.837H116.3" transform="translate(9.74 435.993)"/><path class="a" d="M0,10.049V2.837S.763,0,2.616,0H9.7" transform="translate(154.427 538.635) rotate(90)"/><path class="a" d="M0,10.049V2.837S.763,0,2.616,0H9.7" transform="translate(116.282 577.48) rotate(-90)"/><path class="a" d="M0,10.049V2.837S.763,0,2.616,0H9.7" transform="translate(154.369 577.538) rotate(180)"/><line class="a" x2="56.542" transform="translate(107.235 558.139)"/><path d="M0,0H10V9H-.938Z" transform="translate(116 540)"/><rect class="b" width="6" height="6" transform="translate(118 540)"/><path class="a" d="M116.3,112.749v-7.212s-.763-2.837-2.616-2.837H106.6" transform="translate(37.462 435.993)"/><path d="M9.959,0H-.938V8.743H10.98Z" transform="translate(145.039 540)"/><path class="a" d="M106.6,112.749v-7.212s.763-2.837,2.616-2.837H116.3" transform="translate(13.698 683.658) rotate(-90)"/><path d="M0,0H10V9H-1.58Z" transform="translate(117.704 577.398) rotate(-90)"/><rect class="b" width="6" height="6" transform="translate(147 540)"/><rect class="b" width="6" height="6" transform="translate(118 570)"/></g></svg>