<?xml version="1.0" encoding="UTF-8"?>
<svg width="24px" height="24px" viewBox="0 0 24 24" version="1.1" xmlns="http://www.w3.org/2000/svg" xmlns:xlink="http://www.w3.org/1999/xlink">
    <!-- Generator: sketchtool 56.3 (101010) - https://sketch.com -->
    <title>5EF9AAB2-DC24-45E6-8CC4-92DA540BE6CE</title>
    <desc>Created with sketchtool.</desc>
    <g id="Page-1" stroke="none" stroke-width="1" fill="none" fill-rule="evenodd">
        <g id="Map-View" transform="translate(-319.000000, -612.000000)" fill="#FFFFFF">
            <g id="QR-Code" transform="translate(319.000000, 612.000000)">
                <path d="M0,7.20948148 L6.91348148,7.20948148 L6.91348148,0.296 L0,0.296 L0,7.20948148 Z M1.97540741,5.23466667 L4.93837037,5.23466667 L4.93837037,2.2717037 L1.97540741,2.2717037 L1.97540741,5.23466667 Z" id="Fill-1"></path>
                <path d="M0,24 L6.91348148,24 L6.91348148,17.0865185 L0,17.0865185 L0,24 Z M1.97540741,22.0251852 L4.93837037,22.0251852 L4.93837037,19.0619259 L1.97540741,19.0619259 L1.97540741,22.0251852 Z" id="Fill-2"></path>
                <path d="M16.7902222,7.20948148 L23.7037037,7.20948148 L23.7037037,0.296 L16.7902222,0.296 L16.7902222,7.20948148 Z M18.7653333,5.23466667 L21.7282963,5.23466667 L21.7282963,2.2717037 L18.7653333,2.2717037 L18.7653333,5.23466667 Z" id="Fill-3"></path>
                <polygon id="Fill-4" points="21.7282667 9.18533333 21.7282667 15.1112593 16.7901926 15.1112593 16.7901926 17.0863704 23.7036741 17.0863704 23.7036741 9.18533333"></polygon>
                <polygon id="Fill-5" points="16.7901333 19.0618667 16.7901333 23.9999407 18.7652444 23.9999407 18.7652444 21.0369778 21.7282074 21.0369778 21.7282074 23.9999407 23.7036148 23.9999407 23.7036148 19.0618667"></polygon>
                <polygon id="Fill-6" points="8.8888 0.296266667 8.8888 2.27167407 12.8396148 2.27167407 12.8396148 7.20974815 14.8150222 7.20974815 14.8150222 0.296266667"></polygon>
                <polygon id="Fill-7" points="12.8394667 9.18533333 12.8394667 13.1358519 8.88865185 13.1358519 8.88865185 19.0617778 12.8394667 19.0617778 12.8394667 23.9998519 14.8148741 23.9998519 14.8148741 17.0863704 10.8643556 17.0863704 10.8643556 15.1112593 14.8148741 15.1112593 14.8148741 11.1604444 16.7899852 11.1604444 16.7899852 13.1358519 18.7653926 13.1358519 18.7653926 9.18533333"></polygon>
                <polygon id="Fill-8" points="8.88888889 24 10.8642963 24 10.8642963 21.037037 8.88888889 21.037037"></polygon>
                <polygon id="Fill-9" points="3.95051852 15.1111111 6.91348148 15.1111111 6.91348148 13.136 3.95051852 13.136"></polygon>
                <polygon id="Fill-10" points="8.8888 4.24666667 8.8888 9.18533333 -8.88888889e-05 9.18533333 -8.88888889e-05 15.1112593 1.97561481 15.1112593 1.97561481 11.1604444 10.8642074 11.1604444 10.8642074 4.24666667"></polygon>
            </g>
        </g>
    </g>
</svg>