<svg xmlns="http://www.w3.org/2000/svg" width="160.684" height="204.006" viewBox="0 0 160.684 204.006"><defs><style>.a,.d,.g{fill:none;}.a,.c{stroke:#000;stroke-width:3px;}.b,.c{fill:#fff;}.e,.f{stroke:none;}</style></defs><g transform="translate(-229.02 -152)"><path class="a" d="M284.615,228.994,230.769,339.645s-2.367,8.876,8.876,13.018,137.87,0,137.87,0,13.609-2.959,10.059-13.018-50.3-104.142-54.438-110.651S284.615,228.994,284.615,228.994Z"/><g transform="translate(241 186)"><path class="e" d="M 131.4078674316406 153.5 L 4.592140197753906 153.5 C 4.076240062713623 153.5 3.618520021438599 153.2522735595703 3.336359977722168 152.8203735351563 C 3.054199934005737 152.3884735107422 3.011240005493164 151.8698120117188 3.218499898910522 151.3973693847656 L 66.62635803222656 6.864735126495361 C 66.99166107177734 6.032074928283691 67.77010345458984 5.9673752784729 68 5.9673752784729 C 68.22988128662109 5.9673752784729 69.00832366943359 6.032074928283691 69.37361907958984 6.864735126495361 L 132.781494140625 151.3973693847656 C 132.9887542724609 151.8698120117188 132.94580078125 152.3884735107422 132.6636657714844 152.8203735351563 C 132.3815002441406 153.2522735595703 131.9237823486328 153.5 131.4078674316406 153.5 Z"/><path class="f" d="M 67.99997711181641 7.467330932617188 L 68 7.467361450195313 L 4.592132568359375 151.9999847412109 C 4.592132568359375 151.9999847412109 4.592132568359375 151.9999847412109 4.592132568359375 151.9999847412109 L 131.4078521728516 151.9999847412109 L 67.99997711181641 7.467330932617188 M 67.99999237060547 4.467361450195313 C 69.11116027832031 4.467361450195313 70.22232818603516 5.06561279296875 70.74723815917969 6.262115478515625 L 134.1551055908203 150.7947540283203 C 135.0248107910156 152.7771148681641 133.5726318359375 154.9999847412109 131.4078674316406 154.9999847412109 L 4.592132568359375 154.9999847412109 C 2.4273681640625 154.9999847412109 0.975189208984375 152.7771148681641 1.844863891601563 150.7947540283203 L 65.25273895263672 6.262115478515625 C 65.77764892578125 5.06561279296875 66.88882446289063 4.467361450195313 67.99999237060547 4.467361450195313 Z"/></g><path class="b" d="M10.426-10.213H57.763L68,10H0Z" transform="translate(275 247)"/><ellipse class="b" cx="10" cy="9.5" rx="10" ry="9.5" transform="translate(296 275)"/><ellipse class="b" cx="17.5" cy="16.5" rx="17.5" ry="16.5" transform="translate(316 294)"/><ellipse class="b" cx="9" cy="8.5" rx="9" ry="8.5" transform="translate(291 298)"/><line class="a" y1="61" transform="translate(284.5 167.5)"/><line class="a" y1="61" transform="translate(333.5 167.5)"/><g class="c" transform="translate(275 152)"><rect class="e" width="68" height="18" rx="9"/><rect class="g" x="1.5" y="1.5" width="65" height="15" rx="7.5"/></g><g class="d" transform="translate(222 174)"><path class="e" d="M76.3,22.507a12.154,12.154,0,0,1,21.824,0l68.02,140.3A12.006,12.006,0,0,1,155.227,180H19.187A12.006,12.006,0,0,1,8.275,162.8Z"/><path class="f" d="M 87.20725250244141 18.70480346679688 C 85.52027893066406 18.70480346679688 83.88353729248047 19.14738464355469 82.47394561767578 19.98466491699219 C 80.96239471435547 20.88252258300781 79.791748046875 22.17153930664063 78.99449157714844 23.81593322753906 L 10.97456359863281 164.1111450195313 C 10.27725219726563 165.5493774414063 9.978591918945313 167.0613403320313 10.0867919921875 168.60498046875 C 10.18833923339844 170.0529937744141 10.65757751464844 171.4817352294922 11.44380187988281 172.7366638183594 C 12.24163818359375 174.0101165771484 13.34530639648438 175.0733032226563 14.63555908203125 175.8113098144531 C 16.01455688476563 176.60009765625 17.54598999023438 177.0000305175781 19.18731689453125 177.0000305175781 L 155.2272033691406 177.0000305175781 C 156.8685302734375 177.0000305175781 158.3999938964844 176.60009765625 159.7789916992188 175.8113098144531 C 161.0692291259766 175.0733032226563 162.1729125976563 174.0101165771484 162.9707489013672 172.7366638183594 C 163.7569580078125 171.4817199707031 164.2261962890625 170.0529937744141 164.3277587890625 168.6049499511719 C 164.4359588623047 167.0613403320313 164.1372985839844 165.5493774414063 163.4399871826172 164.1111450195313 L 95.42003631591797 23.81593322753906 C 94.62277221679688 22.17153930664063 93.45213317871094 20.88252258300781 91.94058227539063 19.98466491699219 C 90.53099060058594 19.14738464355469 88.89422607421875 18.70480346679688 87.20725250244141 18.70480346679688 M 87.20726013183594 15.70480346679688 C 91.56404113769531 15.70480346679688 95.92082214355469 17.97224426269531 98.11949157714844 22.50714111328125 L 166.1394348144531 162.8023529052734 C 170.0018463134766 170.7687835693359 164.1444702148438 180.0000152587891 155.2272033691406 180.0000152587891 L 19.18731689453125 180.0000152587891 C 10.27008056640625 180.0000152587891 4.412704467773438 170.7687835693359 8.275115966796875 162.8023529052734 L 76.29503631591797 22.50714111328125 C 78.49370574951172 17.97224426269531 82.85048675537109 15.70480346679688 87.20726013183594 15.70480346679688 Z"/></g><rect class="b" width="46" height="75" transform="translate(286 163)"/></g></svg>