<?xml version="1.0" encoding="iso-8859-1"?>
<!-- Generator: Adobe Illustrator 19.0.0, SVG Export Plug-In . SVG Version: 6.00 Build 0)  -->
<svg version="1.1" id="Capa_1" xmlns="http://www.w3.org/2000/svg" xmlns:xlink="http://www.w3.org/1999/xlink" x="0px" y="0px"
	 viewBox="0 0 369.7 369.7" style="enable-background:new 0 0 369.7 369.7;" xml:space="preserve">
<g>
	<g>
		<path d="M277.2,26.85H92.5L0,184.85l92.5,158h184.7l92.5-158L277.2,26.85z M265.8,322.85H104l-80.8-138l80.8-138h161.8l80.8,138
			L265.8,322.85z"/>
	</g>
</g>
<g>
	<g>
		<path d="M184.9,108.65c-39.7,0-71.9,32.2-71.9,71.9s32.2,71.9,71.9,71.9c39.7,0,71.9-32.2,71.9-71.9c0,0,0,0,0-0.1
			C256.7,140.85,224.6,108.65,184.9,108.65z M184.9,232.45c-28.7,0-51.9-23.2-51.9-51.9s23.2-51.9,51.9-51.9
			c28.7,0,51.9,23.2,51.9,51.9C236.8,209.15,213.6,232.35,184.9,232.45z"/>
	</g>
</g>
<g>
</g>
<g>
</g>
<g>
</g>
<g>
</g>
<g>
</g>
<g>
</g>
<g>
</g>
<g>
</g>
<g>
</g>
<g>
</g>
<g>
</g>
<g>
</g>
<g>
</g>
<g>
</g>
<g>
</g>
</svg>
