<svg xmlns="http://www.w3.org/2000/svg" width="749.379" height="740.443" viewBox="0 0 749.379 740.443"><defs><style>.a{stroke:rgba(112,112,112,0);}.b{stroke:#707070;}.c{stroke:none;}.d{fill:none;}</style></defs><g transform="translate(1035.9 101)"><g class="a" transform="translate(-575 -101)"><circle class="c" cx="71.5" cy="71.5" r="71.5"/><circle class="d" cx="71.5" cy="71.5" r="71"/></g><path class="a" d="M-460.2,85.8c16.9,27.3,9.1,287.3-49.4,314.6s-262.6,31.2-325,33.8-122.2,169-146.9,182-73.45,10.075-45.5-55.9,48.425-116.025,146.9-174.2c25.9-15.3,64.221-19.722,88.4-19.5,67.122.616,144.293,11.231,180.7-33.8,49.4-61.1,42.9-131.3,42.9-131.3l-163.8-22.1s-19.386-8.122-24.7-20.8c-3.341-7.958-4.792-18.252,24.7-28.6,26.75-9.386,73.861-1.81,94.9,0a420.255,420.255,0,0,0,68.9,0l-7.8-70.2S-477.1,58.5-460.2,85.8Z"/><path class="b" d="M-733.251,559.641c4.179-54.822,353.109,50.253,369.824-392.891s185.957,150.76-50.146,356.343c-105.065,91.484-155.47,97.7-206.851,95.938C-684.288,616.845-735.57,590.067-733.251,559.641Z" transform="matrix(0.995, 0.105, -0.105, 0.995, 1.099, 53.268)"/></g></svg>