<svg xmlns="http://www.w3.org/2000/svg" width="160.685" height="204.007" viewBox="0 0 160.685 204.007"><defs><style>.a{fill:#9c3;}.a,.b,.c,.d{stroke:#000;stroke-width:3px;}.b,.e{fill:none;}.c{fill:#4f6a1a;}.d,.f{fill:#fff;}.g{stroke:none;}</style></defs><g transform="translate(-202.954 -158)"><path class="a" d="M65.927,164.5h0c-18.77,0-29.618-.546-32.241-1.623a12.616,12.616,0,0,1-4.851-3.333,9.473,9.473,0,0,1-2-3.773,9.867,9.867,0,0,1-.176-4.369L59.383,76.5h58.823c12.287,27.172,30.609,68.813,32.54,74.906a7.785,7.785,0,0,1-.273,6,10.385,10.385,0,0,1-4.615,4.276,15.559,15.559,0,0,1-3.072,1.2C142.34,162.9,97.86,164.5,65.927,164.5Z" transform="translate(194 186)"/><path class="b" d="M284.615,228.994,230.769,339.645s-2.367,8.876,8.876,13.018,137.87,0,137.87,0,13.609-2.959,10.059-13.018-50.3-104.142-54.438-110.651S284.615,228.994,284.615,228.994Z" transform="translate(-26.066 6)"/><ellipse class="c" cx="10" cy="9.5" rx="10" ry="9.5" transform="translate(269.934 281)"/><ellipse class="c" cx="17.5" cy="16.5" rx="17.5" ry="16.5" transform="translate(289.934 300)"/><ellipse class="c" cx="9" cy="8.5" rx="9" ry="8.5" transform="translate(264.934 304)"/><line class="b" y1="61" transform="translate(258.434 173.5)"/><line class="b" y1="61" transform="translate(307.434 173.5)"/><g class="d" transform="translate(248.934 158)"><rect class="g" width="68" height="18" rx="9"/><rect class="e" x="1.5" y="1.5" width="65" height="15" rx="7.5"/></g><g transform="translate(195.934 180)"><path class="e" d="M76.3,22.507a12.154,12.154,0,0,1,21.824,0l68.02,140.3A12.006,12.006,0,0,1,155.227,180H19.187A12.006,12.006,0,0,1,8.275,162.8Z"/><path class="e" d="M87.207,18.7a9.265,9.265,0,0,0-4.733,1.28,8.854,8.854,0,0,0-3.479,3.831l-68.02,140.3a8.779,8.779,0,0,0-.888,4.494,9,9,0,0,0,1.357,4.132,9.14,9.14,0,0,0,3.192,3.074A9.047,9.047,0,0,0,19.187,177h136.04a9.046,9.046,0,0,0,4.552-1.189,9.145,9.145,0,0,0,3.192-3.074,9.012,9.012,0,0,0,1.357-4.132,8.784,8.784,0,0,0-.888-4.494L95.42,23.816a8.854,8.854,0,0,0-3.479-3.831,9.265,9.265,0,0,0-4.733-1.28m0-3a11.971,11.971,0,0,1,10.912,6.8L166.139,162.8A12.006,12.006,0,0,1,155.227,180H19.187A12.006,12.006,0,0,1,8.275,162.8L76.295,22.507A11.971,11.971,0,0,1,87.207,15.7Z"/></g><rect class="f" width="46" height="66" transform="translate(260 186)"/></g></svg>